<svg width="1957" height="1245" viewBox="0 0 1957 1245" fill="none" xmlns="http://www.w3.org/2000/svg">
<path d="M930.5 525.5L670 271L575.812 365.188C562.486 378.514 555 396.587 555 415.433V415.433C555 434.358 562.55 452.501 575.975 465.84L632.5 522L661.5 492.5L599.8 429.905C595.122 425.16 592.5 418.765 592.5 412.102V412.102C592.5 405.318 595.217 398.818 600.045 394.052L670 325L878.5 530.5L811 603L837.5 628L930.5 525.5Z" fill="#019796" stroke="#147A79"/>
<path d="M773 461.5L746.5 436.5L570.728 618.714C560.959 628.841 555.5 642.363 555.5 656.434V656.434C555.5 670.583 561.02 684.175 570.886 694.317L680.5 807L783 693L755 665.5L680.5 745.5L605.024 670.956C601.49 667.465 599.5 662.704 599.5 657.736V657.736C599.5 653.082 601.246 648.598 604.393 645.17L773 461.5Z" fill="#019796" stroke="#1E6363"/>
<path d="M979.5 478.5L1234 218L1139.81 123.812C1126.49 110.486 1108.41 103 1089.57 103V103C1070.64 103 1052.5 110.55 1039.16 123.975L983 180.5L1012.5 209.5L1075.09 147.8C1079.84 143.122 1086.24 140.5 1092.9 140.5V140.5C1099.68 140.5 1106.18 143.217 1110.95 148.045L1180 218L974.5 426.5L902 359L877 385.5L979.5 478.5Z" fill="#B87063" stroke="#BF7264"/>
<path d="M1043.5 321L1068.5 294.5L886.286 118.728C876.159 108.959 862.637 103.5 848.566 103.5V103.5C834.417 103.5 820.825 109.02 810.683 118.886L698 228.5L812 331L839.5 303L759.5 228.5L834.044 153.024C837.535 149.49 842.296 147.5 847.264 147.5V147.5C851.918 147.5 856.402 149.246 859.83 152.393L1043.5 321Z" fill="#B87063" stroke="#BF7264"/>
<path d="M1026 524.5L1286.5 779L1380.69 684.812C1394.01 671.486 1401.5 653.413 1401.5 634.567V634.567C1401.5 615.642 1393.95 597.499 1380.53 584.16L1324 528L1295 557.5L1356.7 620.095C1361.38 624.84 1364 631.235 1364 637.898V637.898C1364 644.682 1361.28 651.182 1356.45 655.948L1286.5 725L1078 519.5L1145.5 447L1119 422L1026 524.5Z" fill="#328E35" stroke="#448646"/>
<path d="M1183.5 588.5L1210 613.5L1385.77 431.286C1395.54 421.159 1401 407.637 1401 393.566V393.566C1401 379.417 1395.48 365.825 1385.61 355.683L1276 243L1173.5 357L1201.5 384.5L1276 304.5L1351.48 379.044C1355.01 382.535 1357 387.296 1357 392.264V392.264C1357 396.918 1355.25 401.402 1352.11 404.83L1183.5 588.5Z" fill="#328E35" stroke="#448646"/>
<path d="M978.5 571L724 831.5L818.188 925.688C831.514 939.014 849.587 946.5 868.433 946.5V946.5C887.358 946.5 905.501 938.95 918.84 925.525L975 869L945.5 840L882.905 901.7C878.16 906.378 871.765 909 865.102 909V909C858.318 909 851.818 906.283 847.052 901.455L778 831.5L983.5 623L1056 690.5L1081 664L978.5 571Z" fill="#4E6C6E" stroke="#446466"/>
<path d="M914.5 728.5L889.5 755L1071.71 930.772C1081.84 940.541 1095.36 946 1109.43 946V946C1123.58 946 1137.17 940.48 1147.32 930.614L1260 821L1146 718.5L1118.5 746.5L1198.5 821L1123.96 896.476C1120.46 900.01 1115.7 902 1110.74 902V902C1106.08 902 1101.6 900.254 1098.17 897.107L914.5 728.5Z" fill="#4E6C6E" stroke="#446466"/>
<mask id="path-9-outside-1_43_46" maskUnits="userSpaceOnUse" x="64" y="1003" width="1817" height="239" fill="black">
<rect fill="white" x="64" y="1003" width="1817" height="239"/>
<path d="M170.744 1057.16C169.915 1049.41 166.423 1043.37 160.268 1039.05C154.172 1034.73 146.241 1032.57 136.475 1032.57C129.61 1032.57 123.721 1033.61 118.808 1035.68C113.896 1037.75 110.138 1040.56 107.533 1044.11C104.929 1047.66 103.598 1051.72 103.538 1056.28C103.538 1060.06 104.397 1063.35 106.113 1066.13C107.888 1068.91 110.286 1071.28 113.304 1073.23C116.322 1075.13 119.666 1076.72 123.336 1078.03C127.005 1079.33 130.705 1080.42 134.433 1081.31L151.479 1085.57C158.344 1087.17 164.943 1089.33 171.276 1092.05C177.668 1094.78 183.38 1098.21 188.411 1102.35C193.5 1106.5 197.525 1111.5 200.484 1117.36C203.444 1123.22 204.923 1130.08 204.923 1137.95C204.923 1148.61 202.201 1157.99 196.756 1166.1C191.311 1174.14 183.439 1180.45 173.141 1185C162.902 1189.5 150.502 1191.75 135.942 1191.75C121.797 1191.75 109.516 1189.56 99.0994 1185.18C88.742 1180.8 80.6335 1174.41 74.7741 1166.01C68.974 1157.6 65.8371 1147.36 65.3636 1135.29H97.7678C98.2412 1141.62 100.194 1146.89 103.627 1151.09C107.06 1155.29 111.528 1158.43 117.033 1160.5C122.596 1162.57 128.811 1163.61 135.676 1163.61C142.838 1163.61 149.111 1162.54 154.497 1160.41C159.942 1158.22 164.204 1155.21 167.281 1151.36C170.359 1147.45 171.927 1142.89 171.987 1137.69C171.927 1132.95 170.536 1129.04 167.814 1125.97C165.091 1122.83 161.274 1120.23 156.362 1118.15C151.508 1116.02 145.826 1114.13 139.316 1112.47L118.631 1107.15C103.657 1103.3 91.8196 1097.47 83.1193 1089.66C74.4782 1081.79 70.1577 1071.34 70.1577 1058.32C70.1577 1047.61 73.0578 1038.22 78.858 1030.18C84.7173 1022.13 92.6778 1015.88 102.739 1011.44C112.801 1006.95 124.194 1004.7 136.919 1004.7C149.822 1004.7 161.126 1006.95 170.832 1011.44C180.598 1015.88 188.263 1022.07 193.826 1030C199.389 1037.87 202.26 1046.92 202.438 1057.16H170.744ZM289.848 1191.66C276.531 1191.66 264.99 1188.73 255.224 1182.87C245.459 1177.01 237.883 1168.82 232.497 1158.28C227.17 1147.75 224.507 1135.44 224.507 1121.35C224.507 1107.26 227.17 1094.92 232.497 1084.33C237.883 1073.74 245.459 1065.51 255.224 1059.65C264.99 1053.79 276.531 1050.86 289.848 1050.86C303.165 1050.86 314.706 1053.79 324.471 1059.65C334.237 1065.51 341.783 1073.74 347.11 1084.33C352.496 1094.92 355.189 1107.26 355.189 1121.35C355.189 1135.44 352.496 1147.75 347.11 1158.28C341.783 1168.82 334.237 1177.01 324.471 1182.87C314.706 1188.73 303.165 1191.66 289.848 1191.66ZM290.025 1165.92C297.246 1165.92 303.283 1163.93 308.136 1159.97C312.989 1155.94 316.6 1150.56 318.967 1143.81C321.394 1137.06 322.607 1129.55 322.607 1121.26C322.607 1112.92 321.394 1105.37 318.967 1098.62C316.6 1091.82 312.989 1086.4 308.136 1082.38C303.283 1078.35 297.246 1076.34 290.025 1076.34C282.627 1076.34 276.472 1078.35 271.559 1082.38C266.706 1086.4 263.066 1091.82 260.64 1098.62C258.272 1105.37 257.089 1112.92 257.089 1121.26C257.089 1129.55 258.272 1137.06 260.64 1143.81C263.066 1150.56 266.706 1155.94 271.559 1159.97C276.472 1163.93 282.627 1165.92 290.025 1165.92ZM412.104 1007.18V1189H379.966V1007.18H412.104ZM510.744 1052.64V1077.49H432.353V1052.64H510.744ZM451.707 1019.97H483.845V1147.98C483.845 1152.3 484.496 1155.62 485.798 1157.93C487.159 1160.18 488.935 1161.72 491.124 1162.54C493.314 1163.37 495.741 1163.79 498.404 1163.79C500.417 1163.79 502.251 1163.64 503.909 1163.34C505.625 1163.05 506.927 1162.78 507.815 1162.54L513.23 1187.67C511.514 1188.26 509.058 1188.91 505.862 1189.62C502.725 1190.33 498.878 1190.75 494.32 1190.86C486.271 1191.1 479.021 1189.89 472.57 1187.22C466.119 1184.5 460.999 1180.3 457.211 1174.62C453.482 1168.94 451.648 1161.83 451.707 1153.31V1019.97ZM594.027 1191.66C580.355 1191.66 568.547 1188.82 558.604 1183.14C548.72 1177.4 541.115 1169.29 535.788 1158.82C530.461 1148.28 527.798 1135.88 527.798 1121.62C527.798 1107.59 530.461 1095.28 535.788 1084.69C541.174 1074.03 548.69 1065.75 558.338 1059.83C567.985 1053.85 579.319 1050.86 592.34 1050.86C600.744 1050.86 608.675 1052.22 616.132 1054.94C623.649 1057.61 630.278 1061.75 636.019 1067.37C641.819 1073 646.376 1080.16 649.691 1088.86C653.005 1097.5 654.662 1107.8 654.662 1119.75V1129.61H542.89V1107.95H623.856C623.797 1101.79 622.465 1096.32 619.861 1091.52C617.257 1086.67 613.617 1082.85 608.941 1080.07C604.325 1077.29 598.939 1075.9 592.784 1075.9C586.214 1075.9 580.444 1077.49 575.472 1080.69C570.5 1083.83 566.624 1087.97 563.842 1093.12C561.119 1098.21 559.729 1103.8 559.669 1109.9V1128.81C559.669 1136.74 561.119 1143.55 564.02 1149.23C566.92 1154.85 570.974 1159.17 576.182 1162.19C581.391 1165.15 587.487 1166.63 594.471 1166.63C599.146 1166.63 603.378 1165.98 607.166 1164.67C610.954 1163.31 614.239 1161.33 617.02 1158.73C619.802 1156.12 621.903 1152.9 623.324 1149.05L653.331 1152.42C651.437 1160.35 647.826 1167.28 642.5 1173.2C637.232 1179.06 630.485 1183.61 622.258 1186.87C614.031 1190.07 604.621 1191.66 594.027 1191.66ZM702.699 1052.64L730.221 1102.97L758.186 1052.64H792.188L751.084 1120.82L792.898 1189H759.074L730.221 1139.91L701.634 1189H667.543L709.091 1120.82L668.608 1052.64H702.699ZM974.289 1057.16C973.46 1049.41 969.968 1043.37 963.813 1039.05C957.717 1034.73 949.786 1032.57 940.02 1032.57C933.155 1032.57 927.266 1033.61 922.353 1035.68C917.441 1037.75 913.682 1040.56 911.078 1044.11C908.474 1047.66 907.142 1051.72 907.083 1056.28C907.083 1060.06 907.941 1063.35 909.658 1066.13C911.433 1068.91 913.83 1071.28 916.849 1073.23C919.867 1075.13 923.211 1076.72 926.881 1078.03C930.55 1079.33 934.249 1080.42 937.978 1081.31L955.024 1085.57C961.889 1087.17 968.488 1089.33 974.821 1092.05C981.213 1094.78 986.925 1098.21 991.955 1102.35C997.045 1106.5 1001.07 1111.5 1004.03 1117.36C1006.99 1123.22 1008.47 1130.08 1008.47 1137.95C1008.47 1148.61 1005.75 1157.99 1000.3 1166.1C994.856 1174.14 986.984 1180.45 976.686 1185C966.446 1189.5 954.047 1191.75 939.487 1191.75C925.342 1191.75 913.061 1189.56 902.644 1185.18C892.287 1180.8 884.178 1174.41 878.319 1166.01C872.519 1157.6 869.382 1147.36 868.909 1135.29H901.313C901.786 1141.62 903.739 1146.89 907.172 1151.09C910.605 1155.29 915.073 1158.43 920.578 1160.5C926.141 1162.57 932.356 1163.61 939.221 1163.61C946.383 1163.61 952.656 1162.54 958.042 1160.41C963.487 1158.22 967.749 1155.21 970.826 1151.36C973.904 1147.45 975.472 1142.89 975.531 1137.69C975.472 1132.95 974.081 1129.04 971.359 1125.97C968.636 1122.83 964.819 1120.23 959.906 1118.15C955.053 1116.02 949.371 1114.13 942.861 1112.47L922.176 1107.15C907.202 1103.3 895.365 1097.47 886.664 1089.66C878.023 1081.79 873.703 1071.34 873.703 1058.32C873.703 1047.61 876.603 1038.22 882.403 1030.18C888.262 1022.13 896.223 1015.88 906.284 1011.44C916.346 1006.95 927.739 1004.7 940.464 1004.7C953.366 1004.7 964.671 1006.95 974.377 1011.44C984.143 1015.88 991.807 1022.07 997.371 1030C1002.93 1037.87 1005.8 1046.92 1005.98 1057.16H974.289ZM1053.89 1240.14C1049.51 1240.14 1045.45 1239.78 1041.72 1239.07C1038.05 1238.42 1035.12 1237.65 1032.93 1236.76L1040.39 1211.73C1045.07 1213.09 1049.24 1213.74 1052.91 1213.68C1056.58 1213.62 1059.8 1212.47 1062.59 1210.22C1065.43 1208.03 1067.82 1204.36 1069.78 1199.21L1072.53 1191.84L1023.08 1052.64H1057.17L1088.6 1155.62H1090.02L1121.54 1052.64H1155.72L1101.12 1205.51C1098.57 1212.73 1095.2 1218.92 1091 1224.07C1086.79 1229.28 1081.64 1233.24 1075.55 1235.96C1069.51 1238.75 1062.29 1240.14 1053.89 1240.14ZM1283.23 1088.68L1253.93 1091.88C1253.11 1088.92 1251.66 1086.14 1249.58 1083.53C1247.57 1080.93 1244.85 1078.83 1241.42 1077.23C1237.98 1075.63 1233.78 1074.83 1228.81 1074.83C1222.12 1074.83 1216.5 1076.28 1211.94 1079.18C1207.44 1082.08 1205.22 1085.84 1205.28 1090.46C1205.22 1094.42 1206.67 1097.65 1209.63 1100.13C1212.65 1102.62 1217.62 1104.66 1224.55 1106.26L1247.81 1111.23C1260.71 1114.01 1270.3 1118.42 1276.57 1124.46C1282.91 1130.5 1286.1 1138.4 1286.16 1148.16C1286.1 1156.74 1283.59 1164.32 1278.61 1170.89C1273.7 1177.4 1266.87 1182.49 1258.11 1186.16C1249.35 1189.83 1239.29 1191.66 1227.92 1191.66C1211.23 1191.66 1197.8 1188.17 1187.62 1181.19C1177.44 1174.14 1171.37 1164.35 1169.42 1151.8L1200.76 1148.78C1202.18 1154.94 1205.19 1159.58 1209.81 1162.72C1214.43 1165.86 1220.44 1167.43 1227.83 1167.43C1235.47 1167.43 1241.59 1165.86 1246.21 1162.72C1250.89 1159.58 1253.22 1155.71 1253.22 1151.09C1253.22 1147.19 1251.71 1143.96 1248.7 1141.41C1245.74 1138.87 1241.12 1136.92 1234.85 1135.56L1211.59 1130.67C1198.51 1127.95 1188.83 1123.36 1182.56 1116.91C1176.28 1110.4 1173.18 1102.17 1173.23 1092.23C1173.18 1083.83 1175.45 1076.55 1180.07 1070.39C1184.75 1064.18 1191.23 1059.38 1199.51 1056.01C1207.86 1052.58 1217.48 1050.86 1228.37 1050.86C1244.35 1050.86 1256.92 1054.26 1266.1 1061.07C1275.33 1067.88 1281.04 1077.08 1283.23 1088.68ZM1378.25 1052.64V1077.49H1299.86V1052.64H1378.25ZM1319.22 1019.97H1351.35V1147.98C1351.35 1152.3 1352.01 1155.62 1353.31 1157.93C1354.67 1160.18 1356.44 1161.72 1358.63 1162.54C1360.82 1163.37 1363.25 1163.79 1365.91 1163.79C1367.93 1163.79 1369.76 1163.64 1371.42 1163.34C1373.13 1163.05 1374.44 1162.78 1375.32 1162.54L1380.74 1187.67C1379.02 1188.26 1376.57 1188.91 1373.37 1189.62C1370.23 1190.33 1366.39 1190.75 1361.83 1190.86C1353.78 1191.1 1346.53 1189.89 1340.08 1187.22C1333.63 1184.5 1328.51 1180.3 1324.72 1174.62C1320.99 1168.94 1319.16 1161.83 1319.22 1153.31V1019.97ZM1461.54 1191.66C1447.86 1191.66 1436.06 1188.82 1426.11 1183.14C1416.23 1177.4 1408.62 1169.29 1403.3 1158.82C1397.97 1148.28 1395.31 1135.88 1395.31 1121.62C1395.31 1107.59 1397.97 1095.28 1403.3 1084.69C1408.68 1074.03 1416.2 1065.75 1425.85 1059.83C1435.49 1053.85 1446.83 1050.86 1459.85 1050.86C1468.25 1050.86 1476.18 1052.22 1483.64 1054.94C1491.16 1057.61 1497.79 1061.75 1503.53 1067.37C1509.33 1073 1513.89 1080.16 1517.2 1088.86C1520.51 1097.5 1522.17 1107.8 1522.17 1119.75V1129.61H1410.4V1107.95H1491.37C1491.31 1101.79 1489.98 1096.32 1487.37 1091.52C1484.77 1086.67 1481.13 1082.85 1476.45 1080.07C1471.83 1077.29 1466.45 1075.9 1460.29 1075.9C1453.72 1075.9 1447.95 1077.49 1442.98 1080.69C1438.01 1083.83 1434.13 1087.97 1431.35 1093.12C1428.63 1098.21 1427.24 1103.8 1427.18 1109.9V1128.81C1427.18 1136.74 1428.63 1143.55 1431.53 1149.23C1434.43 1154.85 1438.48 1159.17 1443.69 1162.19C1448.9 1165.15 1455 1166.63 1461.98 1166.63C1466.66 1166.63 1470.89 1165.98 1474.68 1164.67C1478.46 1163.31 1481.75 1161.33 1484.53 1158.73C1487.31 1156.12 1489.41 1152.9 1490.83 1149.05L1520.84 1152.42C1518.95 1160.35 1515.34 1167.28 1510.01 1173.2C1504.74 1179.06 1497.99 1183.61 1489.77 1186.87C1481.54 1190.07 1472.13 1191.66 1461.54 1191.66ZM1546.86 1189V1052.64H1577.58V1075.81H1579.18C1582.02 1068 1586.72 1061.9 1593.29 1057.52C1599.86 1053.08 1607.7 1050.86 1616.82 1050.86C1626.05 1050.86 1633.83 1053.11 1640.17 1057.61C1646.56 1062.05 1651.06 1068.11 1653.66 1075.81H1655.08C1658.1 1068.23 1663.19 1062.19 1670.35 1057.7C1677.57 1053.14 1686.12 1050.86 1696.01 1050.86C1708.56 1050.86 1718.79 1054.83 1726.73 1062.76C1734.66 1070.69 1738.62 1082.26 1738.62 1097.47V1189H1706.4V1102.44C1706.4 1093.98 1704.15 1087.79 1699.65 1083.89C1695.15 1079.92 1689.65 1077.94 1683.14 1077.94C1675.38 1077.94 1669.32 1080.36 1664.94 1085.22C1660.62 1090.01 1658.45 1096.26 1658.45 1103.95V1189H1626.94V1101.11C1626.94 1094.07 1624.81 1088.44 1620.55 1084.24C1616.34 1080.04 1610.84 1077.94 1604.03 1077.94C1599.42 1077.94 1595.22 1079.12 1591.43 1081.49C1587.64 1083.8 1584.62 1087.08 1582.37 1091.34C1580.12 1095.55 1579 1100.46 1579 1106.08V1189H1546.86ZM1876.5 1088.68L1847.21 1091.88C1846.38 1088.92 1844.93 1086.14 1842.86 1083.53C1840.84 1080.93 1838.12 1078.83 1834.69 1077.23C1831.26 1075.63 1827.05 1074.83 1822.08 1074.83C1815.39 1074.83 1809.77 1076.28 1805.21 1079.18C1800.72 1082.08 1798.5 1085.84 1798.56 1090.46C1798.5 1094.42 1799.95 1097.65 1802.91 1100.13C1805.92 1102.62 1810.9 1104.66 1817.82 1106.26L1841.08 1111.23C1853.98 1114.01 1863.57 1118.42 1869.84 1124.46C1876.18 1130.5 1879.37 1138.4 1879.43 1148.16C1879.37 1156.74 1876.86 1164.32 1871.89 1170.89C1866.97 1177.4 1860.14 1182.49 1851.38 1186.16C1842.62 1189.83 1832.56 1191.66 1821.19 1191.66C1804.5 1191.66 1791.07 1188.17 1780.89 1181.19C1770.71 1174.14 1764.64 1164.35 1762.69 1151.8L1794.03 1148.78C1795.45 1154.94 1798.47 1159.58 1803.08 1162.72C1807.7 1165.86 1813.71 1167.43 1821.1 1167.43C1828.74 1167.43 1834.87 1165.86 1839.48 1162.72C1844.16 1159.58 1846.5 1155.71 1846.5 1151.09C1846.5 1147.19 1844.99 1143.96 1841.97 1141.41C1839.01 1138.87 1834.39 1136.92 1828.12 1135.56L1804.86 1130.67C1791.78 1127.95 1782.1 1123.36 1775.83 1116.91C1769.55 1110.4 1766.45 1102.17 1766.51 1092.23C1766.45 1083.83 1768.73 1076.55 1773.34 1070.39C1778.02 1064.18 1784.5 1059.38 1792.78 1056.01C1801.13 1052.58 1810.75 1050.86 1821.64 1050.86C1837.62 1050.86 1850.19 1054.26 1859.37 1061.07C1868.6 1067.88 1874.31 1077.08 1876.5 1088.68Z"/>
</mask>
<path d="M170.744 1057.16C169.915 1049.41 166.423 1043.37 160.268 1039.05C154.172 1034.73 146.241 1032.57 136.475 1032.57C129.61 1032.57 123.721 1033.61 118.808 1035.68C113.896 1037.75 110.138 1040.56 107.533 1044.11C104.929 1047.66 103.598 1051.72 103.538 1056.28C103.538 1060.06 104.397 1063.35 106.113 1066.13C107.888 1068.91 110.286 1071.28 113.304 1073.23C116.322 1075.13 119.666 1076.72 123.336 1078.03C127.005 1079.33 130.705 1080.42 134.433 1081.31L151.479 1085.57C158.344 1087.17 164.943 1089.33 171.276 1092.05C177.668 1094.78 183.38 1098.21 188.411 1102.35C193.5 1106.5 197.525 1111.5 200.484 1117.36C203.444 1123.22 204.923 1130.08 204.923 1137.95C204.923 1148.61 202.201 1157.99 196.756 1166.1C191.311 1174.14 183.439 1180.45 173.141 1185C162.902 1189.5 150.502 1191.75 135.942 1191.75C121.797 1191.75 109.516 1189.56 99.0994 1185.18C88.742 1180.8 80.6335 1174.41 74.7741 1166.01C68.974 1157.6 65.8371 1147.36 65.3636 1135.29H97.7678C98.2412 1141.62 100.194 1146.89 103.627 1151.09C107.06 1155.29 111.528 1158.43 117.033 1160.5C122.596 1162.57 128.811 1163.61 135.676 1163.61C142.838 1163.61 149.111 1162.54 154.497 1160.41C159.942 1158.22 164.204 1155.21 167.281 1151.36C170.359 1147.45 171.927 1142.89 171.987 1137.69C171.927 1132.95 170.536 1129.04 167.814 1125.97C165.091 1122.83 161.274 1120.23 156.362 1118.15C151.508 1116.02 145.826 1114.13 139.316 1112.47L118.631 1107.15C103.657 1103.3 91.8196 1097.47 83.1193 1089.66C74.4782 1081.79 70.1577 1071.34 70.1577 1058.32C70.1577 1047.61 73.0578 1038.22 78.858 1030.18C84.7173 1022.13 92.6778 1015.88 102.739 1011.44C112.801 1006.95 124.194 1004.7 136.919 1004.7C149.822 1004.7 161.126 1006.95 170.832 1011.44C180.598 1015.88 188.263 1022.07 193.826 1030C199.389 1037.87 202.26 1046.92 202.438 1057.16H170.744ZM289.848 1191.66C276.531 1191.66 264.99 1188.73 255.224 1182.87C245.459 1177.01 237.883 1168.82 232.497 1158.28C227.17 1147.75 224.507 1135.44 224.507 1121.35C224.507 1107.26 227.17 1094.92 232.497 1084.33C237.883 1073.74 245.459 1065.51 255.224 1059.65C264.99 1053.79 276.531 1050.86 289.848 1050.86C303.165 1050.86 314.706 1053.79 324.471 1059.65C334.237 1065.51 341.783 1073.74 347.11 1084.33C352.496 1094.92 355.189 1107.26 355.189 1121.35C355.189 1135.44 352.496 1147.75 347.11 1158.28C341.783 1168.82 334.237 1177.01 324.471 1182.87C314.706 1188.73 303.165 1191.66 289.848 1191.66ZM290.025 1165.92C297.246 1165.92 303.283 1163.93 308.136 1159.97C312.989 1155.94 316.6 1150.56 318.967 1143.81C321.394 1137.06 322.607 1129.55 322.607 1121.26C322.607 1112.92 321.394 1105.37 318.967 1098.62C316.6 1091.82 312.989 1086.4 308.136 1082.38C303.283 1078.35 297.246 1076.34 290.025 1076.34C282.627 1076.34 276.472 1078.35 271.559 1082.38C266.706 1086.4 263.066 1091.82 260.64 1098.62C258.272 1105.37 257.089 1112.92 257.089 1121.26C257.089 1129.55 258.272 1137.06 260.64 1143.81C263.066 1150.56 266.706 1155.94 271.559 1159.97C276.472 1163.93 282.627 1165.92 290.025 1165.92ZM412.104 1007.18V1189H379.966V1007.18H412.104ZM510.744 1052.64V1077.49H432.353V1052.64H510.744ZM451.707 1019.97H483.845V1147.98C483.845 1152.3 484.496 1155.62 485.798 1157.93C487.159 1160.18 488.935 1161.72 491.124 1162.54C493.314 1163.37 495.741 1163.79 498.404 1163.79C500.417 1163.79 502.251 1163.64 503.909 1163.34C505.625 1163.05 506.927 1162.78 507.815 1162.54L513.23 1187.67C511.514 1188.26 509.058 1188.91 505.862 1189.62C502.725 1190.33 498.878 1190.75 494.32 1190.86C486.271 1191.1 479.021 1189.89 472.57 1187.22C466.119 1184.5 460.999 1180.3 457.211 1174.62C453.482 1168.94 451.648 1161.83 451.707 1153.31V1019.97ZM594.027 1191.66C580.355 1191.66 568.547 1188.82 558.604 1183.14C548.72 1177.4 541.115 1169.29 535.788 1158.82C530.461 1148.28 527.798 1135.88 527.798 1121.62C527.798 1107.59 530.461 1095.28 535.788 1084.69C541.174 1074.03 548.69 1065.75 558.338 1059.83C567.985 1053.85 579.319 1050.86 592.34 1050.86C600.744 1050.86 608.675 1052.22 616.132 1054.94C623.649 1057.61 630.278 1061.75 636.019 1067.37C641.819 1073 646.376 1080.16 649.691 1088.86C653.005 1097.5 654.662 1107.8 654.662 1119.75V1129.61H542.89V1107.95H623.856C623.797 1101.79 622.465 1096.32 619.861 1091.52C617.257 1086.67 613.617 1082.85 608.941 1080.07C604.325 1077.29 598.939 1075.9 592.784 1075.9C586.214 1075.9 580.444 1077.49 575.472 1080.69C570.5 1083.83 566.624 1087.97 563.842 1093.12C561.119 1098.21 559.729 1103.8 559.669 1109.9V1128.81C559.669 1136.74 561.119 1143.55 564.02 1149.23C566.92 1154.85 570.974 1159.17 576.182 1162.19C581.391 1165.15 587.487 1166.63 594.471 1166.63C599.146 1166.63 603.378 1165.98 607.166 1164.67C610.954 1163.31 614.239 1161.33 617.02 1158.73C619.802 1156.12 621.903 1152.9 623.324 1149.05L653.331 1152.42C651.437 1160.35 647.826 1167.28 642.5 1173.2C637.232 1179.06 630.485 1183.61 622.258 1186.87C614.031 1190.07 604.621 1191.66 594.027 1191.66ZM702.699 1052.64L730.221 1102.97L758.186 1052.64H792.188L751.084 1120.82L792.898 1189H759.074L730.221 1139.91L701.634 1189H667.543L709.091 1120.82L668.608 1052.64H702.699ZM974.289 1057.16C973.46 1049.41 969.968 1043.37 963.813 1039.05C957.717 1034.73 949.786 1032.57 940.02 1032.57C933.155 1032.57 927.266 1033.61 922.353 1035.68C917.441 1037.75 913.682 1040.56 911.078 1044.11C908.474 1047.66 907.142 1051.72 907.083 1056.28C907.083 1060.06 907.941 1063.35 909.658 1066.13C911.433 1068.91 913.83 1071.28 916.849 1073.23C919.867 1075.13 923.211 1076.72 926.881 1078.03C930.55 1079.33 934.249 1080.42 937.978 1081.31L955.024 1085.57C961.889 1087.17 968.488 1089.33 974.821 1092.05C981.213 1094.78 986.925 1098.21 991.955 1102.35C997.045 1106.5 1001.07 1111.5 1004.03 1117.36C1006.99 1123.22 1008.47 1130.08 1008.47 1137.95C1008.47 1148.61 1005.75 1157.99 1000.3 1166.1C994.856 1174.14 986.984 1180.45 976.686 1185C966.446 1189.5 954.047 1191.75 939.487 1191.75C925.342 1191.75 913.061 1189.56 902.644 1185.18C892.287 1180.8 884.178 1174.41 878.319 1166.01C872.519 1157.6 869.382 1147.36 868.909 1135.29H901.313C901.786 1141.62 903.739 1146.89 907.172 1151.09C910.605 1155.29 915.073 1158.43 920.578 1160.5C926.141 1162.57 932.356 1163.61 939.221 1163.61C946.383 1163.61 952.656 1162.54 958.042 1160.41C963.487 1158.22 967.749 1155.21 970.826 1151.36C973.904 1147.45 975.472 1142.89 975.531 1137.69C975.472 1132.95 974.081 1129.04 971.359 1125.97C968.636 1122.83 964.819 1120.23 959.906 1118.15C955.053 1116.02 949.371 1114.13 942.861 1112.47L922.176 1107.15C907.202 1103.3 895.365 1097.47 886.664 1089.66C878.023 1081.79 873.703 1071.34 873.703 1058.32C873.703 1047.61 876.603 1038.22 882.403 1030.18C888.262 1022.13 896.223 1015.88 906.284 1011.44C916.346 1006.95 927.739 1004.7 940.464 1004.7C953.366 1004.7 964.671 1006.95 974.377 1011.44C984.143 1015.88 991.807 1022.07 997.371 1030C1002.93 1037.87 1005.8 1046.92 1005.98 1057.16H974.289ZM1053.89 1240.14C1049.51 1240.14 1045.45 1239.78 1041.72 1239.07C1038.05 1238.42 1035.12 1237.65 1032.93 1236.76L1040.39 1211.73C1045.07 1213.09 1049.24 1213.74 1052.91 1213.68C1056.58 1213.62 1059.8 1212.47 1062.59 1210.22C1065.43 1208.03 1067.82 1204.36 1069.78 1199.21L1072.53 1191.84L1023.08 1052.64H1057.17L1088.6 1155.62H1090.02L1121.54 1052.64H1155.72L1101.12 1205.51C1098.57 1212.73 1095.2 1218.92 1091 1224.07C1086.79 1229.28 1081.64 1233.24 1075.55 1235.96C1069.51 1238.75 1062.29 1240.14 1053.89 1240.14ZM1283.23 1088.68L1253.93 1091.88C1253.11 1088.92 1251.66 1086.14 1249.58 1083.53C1247.57 1080.93 1244.85 1078.83 1241.42 1077.23C1237.98 1075.63 1233.78 1074.83 1228.81 1074.83C1222.12 1074.83 1216.5 1076.28 1211.94 1079.18C1207.44 1082.08 1205.22 1085.84 1205.28 1090.46C1205.22 1094.42 1206.67 1097.65 1209.63 1100.13C1212.65 1102.62 1217.62 1104.66 1224.55 1106.26L1247.81 1111.23C1260.71 1114.01 1270.3 1118.42 1276.57 1124.46C1282.91 1130.5 1286.1 1138.4 1286.16 1148.16C1286.1 1156.74 1283.59 1164.32 1278.61 1170.89C1273.7 1177.4 1266.87 1182.49 1258.11 1186.16C1249.35 1189.83 1239.29 1191.66 1227.92 1191.66C1211.23 1191.66 1197.8 1188.17 1187.62 1181.19C1177.44 1174.14 1171.37 1164.35 1169.42 1151.8L1200.76 1148.78C1202.18 1154.94 1205.19 1159.58 1209.81 1162.72C1214.43 1165.86 1220.44 1167.43 1227.83 1167.43C1235.47 1167.43 1241.59 1165.86 1246.21 1162.72C1250.89 1159.58 1253.22 1155.71 1253.22 1151.09C1253.22 1147.19 1251.71 1143.96 1248.7 1141.41C1245.74 1138.87 1241.12 1136.92 1234.85 1135.56L1211.59 1130.67C1198.51 1127.95 1188.83 1123.36 1182.56 1116.91C1176.28 1110.4 1173.18 1102.17 1173.23 1092.23C1173.18 1083.83 1175.45 1076.55 1180.07 1070.39C1184.75 1064.18 1191.23 1059.38 1199.51 1056.01C1207.86 1052.58 1217.48 1050.86 1228.37 1050.86C1244.35 1050.86 1256.92 1054.26 1266.1 1061.07C1275.33 1067.88 1281.04 1077.08 1283.23 1088.68ZM1378.25 1052.64V1077.49H1299.86V1052.64H1378.25ZM1319.22 1019.97H1351.35V1147.98C1351.35 1152.3 1352.01 1155.62 1353.31 1157.93C1354.67 1160.18 1356.44 1161.72 1358.63 1162.54C1360.82 1163.37 1363.25 1163.79 1365.91 1163.79C1367.93 1163.79 1369.76 1163.64 1371.42 1163.34C1373.13 1163.05 1374.44 1162.78 1375.32 1162.54L1380.74 1187.67C1379.02 1188.26 1376.57 1188.91 1373.37 1189.62C1370.23 1190.33 1366.39 1190.75 1361.83 1190.86C1353.78 1191.1 1346.53 1189.89 1340.08 1187.22C1333.63 1184.5 1328.51 1180.3 1324.72 1174.62C1320.99 1168.94 1319.16 1161.83 1319.22 1153.31V1019.97ZM1461.54 1191.66C1447.86 1191.66 1436.06 1188.82 1426.11 1183.14C1416.23 1177.4 1408.62 1169.29 1403.3 1158.82C1397.97 1148.28 1395.31 1135.88 1395.31 1121.62C1395.31 1107.59 1397.97 1095.28 1403.3 1084.69C1408.68 1074.03 1416.2 1065.75 1425.85 1059.83C1435.49 1053.85 1446.83 1050.86 1459.85 1050.86C1468.25 1050.86 1476.18 1052.22 1483.64 1054.94C1491.16 1057.61 1497.79 1061.75 1503.53 1067.37C1509.33 1073 1513.89 1080.16 1517.2 1088.86C1520.51 1097.5 1522.17 1107.8 1522.17 1119.75V1129.61H1410.4V1107.95H1491.37C1491.31 1101.79 1489.98 1096.32 1487.37 1091.52C1484.77 1086.67 1481.13 1082.85 1476.45 1080.07C1471.83 1077.29 1466.45 1075.9 1460.29 1075.9C1453.72 1075.9 1447.95 1077.49 1442.98 1080.69C1438.01 1083.83 1434.13 1087.97 1431.35 1093.12C1428.63 1098.21 1427.24 1103.8 1427.18 1109.9V1128.81C1427.18 1136.74 1428.63 1143.55 1431.53 1149.23C1434.43 1154.85 1438.48 1159.17 1443.69 1162.19C1448.9 1165.15 1455 1166.63 1461.98 1166.63C1466.66 1166.63 1470.89 1165.98 1474.68 1164.67C1478.46 1163.31 1481.75 1161.33 1484.53 1158.73C1487.31 1156.12 1489.41 1152.9 1490.83 1149.05L1520.84 1152.42C1518.95 1160.35 1515.34 1167.28 1510.01 1173.2C1504.74 1179.06 1497.99 1183.61 1489.77 1186.87C1481.54 1190.07 1472.13 1191.66 1461.54 1191.66ZM1546.86 1189V1052.64H1577.58V1075.81H1579.18C1582.02 1068 1586.72 1061.9 1593.29 1057.52C1599.86 1053.08 1607.7 1050.86 1616.82 1050.86C1626.05 1050.86 1633.83 1053.11 1640.17 1057.61C1646.56 1062.05 1651.06 1068.11 1653.66 1075.81H1655.08C1658.1 1068.23 1663.19 1062.19 1670.35 1057.7C1677.57 1053.14 1686.12 1050.86 1696.01 1050.86C1708.56 1050.86 1718.79 1054.83 1726.73 1062.76C1734.66 1070.69 1738.62 1082.26 1738.62 1097.47V1189H1706.4V1102.44C1706.4 1093.98 1704.15 1087.79 1699.65 1083.89C1695.15 1079.92 1689.65 1077.94 1683.14 1077.94C1675.38 1077.94 1669.32 1080.36 1664.94 1085.22C1660.62 1090.01 1658.45 1096.26 1658.45 1103.95V1189H1626.94V1101.11C1626.94 1094.07 1624.81 1088.44 1620.55 1084.24C1616.34 1080.04 1610.84 1077.94 1604.03 1077.94C1599.42 1077.94 1595.22 1079.12 1591.43 1081.49C1587.64 1083.8 1584.62 1087.08 1582.37 1091.34C1580.12 1095.55 1579 1100.46 1579 1106.08V1189H1546.86ZM1876.5 1088.68L1847.21 1091.88C1846.38 1088.92 1844.93 1086.14 1842.86 1083.53C1840.84 1080.93 1838.12 1078.83 1834.69 1077.23C1831.26 1075.63 1827.05 1074.83 1822.08 1074.83C1815.39 1074.83 1809.77 1076.28 1805.21 1079.18C1800.72 1082.08 1798.5 1085.84 1798.56 1090.46C1798.5 1094.42 1799.95 1097.65 1802.91 1100.13C1805.92 1102.62 1810.9 1104.66 1817.82 1106.26L1841.08 1111.23C1853.98 1114.01 1863.57 1118.42 1869.84 1124.46C1876.18 1130.5 1879.37 1138.4 1879.43 1148.16C1879.37 1156.74 1876.86 1164.32 1871.89 1170.89C1866.97 1177.4 1860.14 1182.49 1851.38 1186.16C1842.62 1189.83 1832.56 1191.66 1821.19 1191.66C1804.5 1191.66 1791.07 1188.17 1780.89 1181.19C1770.71 1174.14 1764.64 1164.35 1762.69 1151.8L1794.03 1148.78C1795.45 1154.94 1798.47 1159.58 1803.08 1162.72C1807.7 1165.86 1813.71 1167.43 1821.1 1167.43C1828.74 1167.43 1834.87 1165.86 1839.48 1162.72C1844.16 1159.58 1846.5 1155.71 1846.5 1151.09C1846.5 1147.19 1844.99 1143.96 1841.97 1141.41C1839.01 1138.87 1834.39 1136.92 1828.12 1135.56L1804.86 1130.67C1791.78 1127.95 1782.1 1123.36 1775.83 1116.91C1769.55 1110.4 1766.45 1102.17 1766.51 1092.23C1766.45 1083.83 1768.73 1076.55 1773.34 1070.39C1778.02 1064.18 1784.5 1059.38 1792.78 1056.01C1801.13 1052.58 1810.75 1050.86 1821.64 1050.86C1837.62 1050.86 1850.19 1054.26 1859.37 1061.07C1868.6 1067.88 1874.31 1077.08 1876.5 1088.68Z" fill="#436366"/>
<path d="M170.744 1057.16L169.749 1057.27L169.845 1058.16H170.744V1057.16ZM160.268 1039.05L159.69 1039.87L159.693 1039.87L160.268 1039.05ZM118.808 1035.68L119.197 1036.6L119.197 1036.6L118.808 1035.68ZM107.533 1044.11L106.727 1043.52L106.727 1043.52L107.533 1044.11ZM103.538 1056.28L102.538 1056.26V1056.28H103.538ZM106.113 1066.13L105.262 1066.66L105.266 1066.66L105.27 1066.67L106.113 1066.13ZM113.304 1073.23L112.761 1074.07L112.772 1074.08L113.304 1073.23ZM123.336 1078.03L123.002 1078.97L123.002 1078.97L123.336 1078.03ZM134.433 1081.31L134.676 1080.34L134.665 1080.34L134.433 1081.31ZM151.479 1085.57L151.236 1086.54L151.244 1086.55L151.252 1086.55L151.479 1085.57ZM171.276 1092.05L170.881 1092.97L170.884 1092.97L171.276 1092.05ZM188.411 1102.35L187.775 1103.12L187.779 1103.13L188.411 1102.35ZM196.756 1166.1L197.584 1166.66L197.586 1166.65L196.756 1166.1ZM173.141 1185L173.543 1185.92L173.545 1185.92L173.141 1185ZM99.0994 1185.18L98.71 1186.1L98.7118 1186.1L99.0994 1185.18ZM74.7741 1166.01L73.9511 1166.57L73.9538 1166.58L74.7741 1166.01ZM65.3636 1135.29V1134.29H64.3237L64.3644 1135.33L65.3636 1135.29ZM97.7678 1135.29L98.765 1135.21L98.6958 1134.29H97.7678V1135.29ZM103.627 1151.09L104.402 1150.46L104.402 1150.46L103.627 1151.09ZM117.033 1160.5L116.68 1161.44L116.684 1161.44L117.033 1160.5ZM154.497 1160.41L154.865 1161.34L154.87 1161.34L154.497 1160.41ZM167.281 1151.36L168.062 1151.98L168.067 1151.98L167.281 1151.36ZM171.987 1137.69L172.986 1137.7L172.987 1137.69L172.986 1137.67L171.987 1137.69ZM167.814 1125.97L167.059 1126.62L167.065 1126.63L167.814 1125.97ZM156.362 1118.15L155.96 1119.07L155.966 1119.07L155.973 1119.08L156.362 1118.15ZM139.316 1112.47L139.067 1113.44L139.069 1113.44L139.316 1112.47ZM118.631 1107.15L118.88 1106.18L118.88 1106.18L118.631 1107.15ZM83.1193 1089.66L82.4459 1090.4L82.4512 1090.4L83.1193 1089.66ZM78.858 1030.18L78.0495 1029.59L78.0466 1029.59L78.858 1030.18ZM102.739 1011.44L103.143 1012.36L103.147 1012.36L102.739 1011.44ZM170.832 1011.44L170.412 1012.35L170.419 1012.35L170.832 1011.44ZM193.826 1030L193.007 1030.57L193.009 1030.58L193.826 1030ZM202.438 1057.16V1058.16H203.455L203.437 1057.15L202.438 1057.16ZM171.738 1057.06C170.88 1049.03 167.243 1042.73 160.842 1038.23L159.693 1039.87C165.603 1044.02 168.95 1049.79 169.749 1057.27L171.738 1057.06ZM160.846 1038.24C154.536 1033.77 146.385 1031.57 136.475 1031.57V1033.57C146.097 1033.57 153.808 1035.7 159.69 1039.87L160.846 1038.24ZM136.475 1031.57C129.513 1031.57 123.485 1032.62 118.42 1034.76L119.197 1036.6C123.956 1034.59 129.706 1033.57 136.475 1033.57V1031.57ZM118.42 1034.76C113.376 1036.89 109.459 1039.8 106.727 1043.52L108.34 1044.7C110.817 1041.33 114.416 1038.62 119.197 1036.6L118.42 1034.76ZM106.727 1043.52C103.995 1047.25 102.6 1051.51 102.538 1056.26L104.538 1056.29C104.595 1051.93 105.863 1048.08 108.34 1044.7L106.727 1043.52ZM102.538 1056.28C102.538 1060.22 103.433 1063.69 105.262 1066.66L106.964 1065.61C105.36 1063.01 104.538 1059.91 104.538 1056.28H102.538ZM105.27 1066.67C107.129 1069.58 109.633 1072.05 112.761 1074.07L113.847 1072.39C110.938 1070.51 108.648 1068.24 106.956 1065.59L105.27 1066.67ZM112.772 1074.08C115.858 1076.02 119.269 1077.65 123.002 1078.97L123.67 1077.08C120.064 1075.8 116.787 1074.24 113.835 1072.39L112.772 1074.08ZM123.002 1078.97C126.704 1080.28 130.438 1081.39 134.202 1082.28L134.665 1080.34C130.971 1079.46 127.307 1078.37 123.67 1077.08L123.002 1078.97ZM134.191 1082.28L151.236 1086.54L151.721 1084.6L134.676 1080.34L134.191 1082.28ZM151.252 1086.55C158.061 1088.13 164.604 1090.27 170.881 1092.97L171.671 1091.14C165.283 1088.39 158.627 1086.21 151.705 1084.6L151.252 1086.55ZM170.884 1092.97C177.194 1095.66 182.823 1099.05 187.775 1103.12L189.046 1101.58C183.937 1097.37 178.142 1093.89 171.668 1091.13L170.884 1092.97ZM187.779 1103.13C192.76 1107.18 196.696 1112.07 199.592 1117.81L201.377 1116.91C198.354 1110.92 194.241 1105.81 189.042 1101.58L187.779 1103.13ZM199.592 1117.81C202.468 1123.5 203.923 1130.21 203.923 1137.95H205.923C205.923 1129.96 204.42 1122.93 201.377 1116.91L199.592 1117.81ZM203.923 1137.95C203.923 1148.43 201.25 1157.61 195.926 1165.54L197.586 1166.65C203.152 1158.36 205.923 1148.79 205.923 1137.95H203.923ZM195.927 1165.53C190.603 1173.41 182.89 1179.6 172.736 1184.09L173.545 1185.92C183.987 1181.3 192.018 1174.88 197.584 1166.66L195.927 1165.53ZM172.738 1184.09C162.658 1188.52 150.404 1190.75 135.942 1190.75V1192.75C150.601 1192.75 163.145 1190.49 173.543 1185.92L172.738 1184.09ZM135.942 1190.75C121.898 1190.75 109.754 1188.58 99.487 1184.26L98.7118 1186.1C109.278 1190.55 121.696 1192.75 135.942 1192.75V1190.75ZM99.4889 1184.26C89.2875 1179.95 81.3356 1173.67 75.5945 1165.43L73.9538 1166.58C79.9314 1175.15 88.1964 1181.66 98.71 1186.1L99.4889 1184.26ZM75.5972 1165.44C69.9231 1157.22 66.8303 1147.17 66.3629 1135.25L64.3644 1135.33C64.8439 1147.56 68.0249 1157.99 73.9511 1166.57L75.5972 1165.44ZM65.3636 1136.29H97.7678V1134.29H65.3636V1136.29ZM96.7705 1135.36C97.2566 1141.87 99.2692 1147.34 102.853 1151.72L104.402 1150.46C101.12 1146.44 99.2258 1141.38 98.765 1135.21L96.7705 1135.36ZM102.853 1151.72C106.406 1156.07 111.025 1159.31 116.68 1161.44L117.385 1159.57C112.031 1157.55 107.714 1154.51 104.402 1150.46L102.853 1151.72ZM116.684 1161.44C122.375 1163.56 128.71 1164.61 135.676 1164.61V1162.61C128.911 1162.61 122.817 1161.59 117.382 1159.56L116.684 1161.44ZM135.676 1164.61C142.935 1164.61 149.338 1163.53 154.865 1161.34L154.129 1159.48C148.885 1161.56 142.74 1162.61 135.676 1162.61V1164.61ZM154.87 1161.34C160.445 1159.1 164.858 1155.99 168.062 1151.98L166.5 1150.73C163.549 1154.42 159.44 1157.35 154.124 1159.49L154.87 1161.34ZM168.067 1151.98C171.288 1147.89 172.925 1143.12 172.986 1137.7L170.987 1137.67C170.93 1142.67 169.43 1147.01 166.496 1150.74L168.067 1151.98ZM172.986 1137.67C172.925 1132.74 171.468 1128.59 168.563 1125.3L167.065 1126.63C169.605 1129.5 170.93 1133.16 170.987 1137.7L172.986 1137.67ZM168.569 1125.31C165.722 1122.03 161.765 1119.35 156.75 1117.23L155.973 1119.08C160.783 1121.1 164.461 1123.63 167.059 1126.62L168.569 1125.31ZM156.763 1117.24C151.849 1115.08 146.113 1113.17 139.563 1111.5L139.069 1113.44C145.54 1115.09 151.168 1116.97 155.96 1119.07L156.763 1117.24ZM139.565 1111.5L118.88 1106.18L118.381 1108.11L139.067 1113.44L139.565 1111.5ZM118.88 1106.18C104.013 1102.36 92.3358 1096.59 83.7874 1088.91L82.4512 1090.4C91.3034 1098.35 103.3 1104.24 118.382 1108.11L118.88 1106.18ZM83.7927 1088.92C75.3846 1081.26 71.1577 1071.09 71.1577 1058.32H69.1577C69.1577 1071.58 73.5718 1082.31 82.4459 1090.4L83.7927 1088.92ZM71.1577 1058.32C71.1577 1047.8 74.0017 1038.63 79.6693 1030.76L78.0466 1029.59C72.1138 1037.82 69.1577 1047.41 69.1577 1058.32H71.1577ZM79.6664 1030.76C85.4114 1022.87 93.2255 1016.73 103.143 1012.36L102.336 1010.53C92.1301 1015.03 84.0233 1021.38 78.0495 1029.59L79.6664 1030.76ZM103.147 1012.36C113.062 1007.92 124.313 1005.7 136.919 1005.7V1003.7C124.075 1003.7 112.54 1005.97 102.331 1010.53L103.147 1012.36ZM136.919 1005.7C149.706 1005.7 160.862 1007.92 170.412 1012.35L171.253 1010.54C161.39 1005.97 149.937 1003.7 136.919 1003.7V1005.7ZM170.419 1012.35C180.04 1016.73 187.557 1022.8 193.007 1030.57L194.645 1029.42C188.968 1021.33 181.156 1015.04 171.246 1010.53L170.419 1012.35ZM193.009 1030.58C198.45 1038.27 201.263 1047.13 201.438 1057.18L203.437 1057.15C203.257 1046.72 200.329 1037.47 194.643 1029.42L193.009 1030.58ZM202.438 1056.16H170.744V1058.16H202.438V1056.16ZM255.224 1182.87L254.71 1183.73L254.71 1183.73L255.224 1182.87ZM232.497 1158.28L231.605 1158.73L231.607 1158.74L232.497 1158.28ZM232.497 1084.33L231.606 1083.88L231.604 1083.88L232.497 1084.33ZM255.224 1059.65L255.739 1060.51L255.739 1060.51L255.224 1059.65ZM324.471 1059.65L323.957 1060.51L323.957 1060.51L324.471 1059.65ZM347.11 1084.33L346.216 1084.78L346.218 1084.78L347.11 1084.33ZM347.11 1158.28L346.22 1157.83L346.217 1157.83L347.11 1158.28ZM324.471 1182.87L323.957 1182.02L323.957 1182.02L324.471 1182.87ZM308.136 1159.97L308.769 1160.74L308.775 1160.74L308.136 1159.97ZM318.967 1143.81L318.026 1143.47L318.024 1143.48L318.967 1143.81ZM318.967 1098.62L318.023 1098.95L318.026 1098.96L318.967 1098.62ZM308.136 1082.38L308.775 1081.61L308.775 1081.61L308.136 1082.38ZM271.559 1082.38L270.926 1081.6L270.921 1081.61L271.559 1082.38ZM260.64 1098.62L259.698 1098.29L259.696 1098.29L260.64 1098.62ZM260.64 1143.81L259.696 1144.14L259.699 1144.15L260.64 1143.81ZM271.559 1159.97L270.921 1160.74L270.931 1160.75L271.559 1159.97ZM289.848 1190.66C276.681 1190.66 265.324 1187.77 255.739 1182.02L254.71 1183.73C264.655 1189.7 276.381 1192.66 289.848 1192.66V1190.66ZM255.739 1182.02C246.14 1176.26 238.692 1168.2 233.387 1157.83L231.607 1158.74C237.074 1169.43 244.777 1177.77 254.71 1183.73L255.739 1182.02ZM233.389 1157.83C228.146 1147.46 225.507 1135.31 225.507 1121.35H223.507C223.507 1135.56 226.195 1148.03 231.605 1158.73L233.389 1157.83ZM225.507 1121.35C225.507 1107.39 228.146 1095.21 233.39 1084.78L231.604 1083.88C226.195 1094.64 223.507 1107.14 223.507 1121.35H225.507ZM233.388 1084.78C238.693 1074.35 246.141 1066.27 255.739 1060.51L254.71 1058.79C244.776 1064.75 237.073 1073.12 231.606 1083.88L233.388 1084.78ZM255.739 1060.51C265.324 1054.76 276.681 1051.86 289.848 1051.86V1049.86C276.381 1049.86 264.655 1052.82 254.71 1058.79L255.739 1060.51ZM289.848 1051.86C303.014 1051.86 314.371 1054.76 323.957 1060.51L324.986 1058.79C315.04 1052.82 303.315 1049.86 289.848 1049.86V1051.86ZM323.957 1060.51C333.553 1066.27 340.971 1074.35 346.216 1084.78L348.003 1083.88C342.595 1073.12 334.921 1064.75 324.986 1058.79L323.957 1060.51ZM346.218 1084.78C351.521 1095.21 354.189 1107.39 354.189 1121.35H356.189C356.189 1107.14 353.471 1094.64 348.001 1083.88L346.218 1084.78ZM354.189 1121.35C354.189 1135.31 351.521 1147.46 346.22 1157.83L348 1158.74C353.471 1148.04 356.189 1135.57 356.189 1121.35H354.189ZM346.217 1157.83C340.973 1168.2 333.555 1176.26 323.957 1182.02L324.986 1183.73C334.919 1177.77 342.594 1169.43 348.002 1158.73L346.217 1157.83ZM323.957 1182.02C314.371 1187.77 303.014 1190.66 289.848 1190.66V1192.66C303.315 1192.66 315.04 1189.7 324.986 1183.73L323.957 1182.02ZM290.025 1166.92C297.44 1166.92 303.71 1164.88 308.769 1160.74L307.503 1159.2C302.855 1162.99 297.052 1164.92 290.025 1164.92V1166.92ZM308.775 1160.74C313.785 1156.58 317.491 1151.04 319.911 1144.14L318.024 1143.48C315.708 1150.08 312.193 1155.31 307.498 1159.2L308.775 1160.74ZM319.908 1144.15C322.379 1137.28 323.607 1129.65 323.607 1121.26H321.607C321.607 1129.45 320.408 1136.85 318.026 1143.47L319.908 1144.15ZM323.607 1121.26C323.607 1112.82 322.38 1105.16 319.908 1098.29L318.026 1098.96C320.408 1105.58 321.607 1113.01 321.607 1121.26H323.607ZM319.912 1098.3C317.493 1091.34 313.787 1085.76 308.775 1081.61L307.498 1083.15C312.192 1087.04 315.706 1092.29 318.023 1098.95L319.912 1098.3ZM308.775 1081.61C303.716 1077.41 297.443 1075.34 290.025 1075.34V1077.34C297.049 1077.34 302.85 1079.29 307.498 1083.15L308.775 1081.61ZM290.025 1075.34C282.436 1075.34 276.046 1077.41 270.926 1081.6L272.193 1083.15C276.898 1079.3 282.818 1077.34 290.025 1077.34V1075.34ZM270.921 1081.61C265.91 1085.76 262.176 1091.34 259.698 1098.29L261.582 1098.96C263.957 1092.3 267.502 1087.04 272.198 1083.15L270.921 1081.61ZM259.696 1098.29C257.286 1105.16 256.089 1112.82 256.089 1121.26H258.089C258.089 1113.01 259.259 1105.58 261.583 1098.95L259.696 1098.29ZM256.089 1121.26C256.089 1129.64 257.286 1137.27 259.696 1144.14L261.583 1143.48C259.259 1136.86 258.089 1129.45 258.089 1121.26H256.089ZM259.699 1144.15C262.177 1151.04 265.912 1156.59 270.921 1160.74L272.198 1159.2C267.5 1155.3 263.955 1150.08 261.581 1143.47L259.699 1144.15ZM270.931 1160.75C276.051 1164.88 282.44 1166.92 290.025 1166.92V1164.92C282.815 1164.92 276.893 1162.99 272.188 1159.19L270.931 1160.75ZM412.104 1007.18H413.104V1006.18H412.104V1007.18ZM412.104 1189V1190H413.104V1189H412.104ZM379.966 1189H378.966V1190H379.966V1189ZM379.966 1007.18V1006.18H378.966V1007.18H379.966ZM411.104 1007.18V1189H413.104V1007.18H411.104ZM412.104 1188H379.966V1190H412.104V1188ZM380.966 1189V1007.18H378.966V1189H380.966ZM379.966 1008.18H412.104V1006.18H379.966V1008.18ZM510.744 1052.64H511.744V1051.64H510.744V1052.64ZM510.744 1077.49V1078.49H511.744V1077.49H510.744ZM432.353 1077.49H431.353V1078.49H432.353V1077.49ZM432.353 1052.64V1051.64H431.353V1052.64H432.353ZM451.707 1019.97V1018.97H450.707V1019.97H451.707ZM483.845 1019.97H484.845V1018.97H483.845V1019.97ZM485.798 1157.93L484.927 1158.42L484.934 1158.43L484.942 1158.45L485.798 1157.93ZM491.124 1162.54L490.771 1163.48L490.771 1163.48L491.124 1162.54ZM503.909 1163.34L503.739 1162.36L503.733 1162.36L503.909 1163.34ZM507.815 1162.54L508.792 1162.33L508.571 1161.31L507.557 1161.58L507.815 1162.54ZM513.23 1187.67L513.556 1188.61L514.395 1188.32L514.208 1187.46L513.23 1187.67ZM505.862 1189.62L505.645 1188.65L505.641 1188.65L505.862 1189.62ZM494.32 1190.86L494.295 1189.86L494.291 1189.86L494.32 1190.86ZM472.57 1187.22L472.181 1188.15L472.188 1188.15L472.57 1187.22ZM457.211 1174.62L456.375 1175.17L456.379 1175.17L457.211 1174.62ZM451.707 1153.31L452.707 1153.32V1153.31H451.707ZM509.744 1052.64V1077.49H511.744V1052.64H509.744ZM510.744 1076.49H432.353V1078.49H510.744V1076.49ZM433.353 1077.49V1052.64H431.353V1077.49H433.353ZM432.353 1053.64H510.744V1051.64H432.353V1053.64ZM451.707 1020.97H483.845V1018.97H451.707V1020.97ZM482.845 1019.97V1147.98H484.845V1019.97H482.845ZM482.845 1147.98C482.845 1152.38 483.503 1155.89 484.927 1158.42L486.669 1157.44C485.489 1155.34 484.845 1152.23 484.845 1147.98H482.845ZM484.942 1158.45C486.404 1160.86 488.346 1162.56 490.771 1163.48L491.478 1161.61C489.523 1160.87 487.914 1159.49 486.653 1157.41L484.942 1158.45ZM490.771 1163.48C493.088 1164.36 495.636 1164.79 498.404 1164.79V1162.79C495.845 1162.79 493.541 1162.39 491.478 1161.61L490.771 1163.48ZM498.404 1164.79C500.465 1164.79 502.359 1164.64 504.084 1164.33L503.733 1162.36C502.144 1162.64 500.369 1162.79 498.404 1162.79V1164.79ZM504.078 1164.33C505.803 1164.03 507.141 1163.76 508.072 1163.51L507.557 1161.58C506.713 1161.8 505.447 1162.06 503.739 1162.36L504.078 1164.33ZM506.837 1162.75L512.253 1187.88L514.208 1187.46L508.792 1162.33L506.837 1162.75ZM512.904 1186.72C511.241 1187.3 508.828 1187.94 505.645 1188.65L506.079 1190.6C509.287 1189.88 511.787 1189.22 513.556 1188.61L512.904 1186.72ZM505.641 1188.65C502.588 1189.34 498.811 1189.75 494.295 1189.86L494.346 1191.86C498.945 1191.74 502.861 1191.33 506.083 1190.6L505.641 1188.65ZM494.291 1189.86C486.361 1190.1 479.254 1188.9 472.951 1186.3L472.188 1188.15C478.788 1190.87 486.181 1192.1 494.35 1191.86L494.291 1189.86ZM472.959 1186.3C466.683 1183.65 461.72 1179.58 458.043 1174.06L456.379 1175.17C460.278 1181.02 465.554 1185.35 472.181 1188.15L472.959 1186.3ZM458.047 1174.07C454.451 1168.59 452.649 1161.69 452.707 1153.32L450.707 1153.3C450.647 1161.97 452.514 1169.28 456.375 1175.17L458.047 1174.07ZM452.707 1153.31V1019.97H450.707V1153.31H452.707ZM558.604 1183.14L558.102 1184.01L558.108 1184.01L558.604 1183.14ZM535.788 1158.82L534.896 1159.27L534.897 1159.27L535.788 1158.82ZM535.788 1084.69L534.896 1084.23L534.895 1084.24L535.788 1084.69ZM558.338 1059.83L558.861 1060.68L558.864 1060.68L558.338 1059.83ZM616.132 1054.94L615.79 1055.88L615.798 1055.89L616.132 1054.94ZM636.019 1067.37L635.319 1068.09L635.323 1068.09L636.019 1067.37ZM649.691 1088.86L648.756 1089.21L648.757 1089.22L649.691 1088.86ZM654.662 1129.61V1130.61H655.662V1129.61H654.662ZM542.89 1129.61H541.89V1130.61H542.89V1129.61ZM542.89 1107.95V1106.95H541.89V1107.95H542.89ZM623.856 1107.95V1108.95H624.866L624.856 1107.94L623.856 1107.95ZM619.861 1091.52L618.98 1091.99L618.982 1092L619.861 1091.52ZM608.941 1080.07L608.425 1080.93L608.43 1080.93L608.941 1080.07ZM575.472 1080.69L576.006 1081.54L576.013 1081.53L575.472 1080.69ZM563.842 1093.12L562.962 1092.64L562.96 1092.65L563.842 1093.12ZM559.669 1109.9L558.669 1109.89V1109.9H559.669ZM564.02 1149.23L563.129 1149.68L563.131 1149.69L564.02 1149.23ZM576.182 1162.19L575.681 1163.05L575.688 1163.06L576.182 1162.19ZM607.166 1164.67L607.491 1165.62L607.504 1165.62L607.166 1164.67ZM617.02 1158.73L616.337 1158L617.02 1158.73ZM623.324 1149.05L623.435 1148.06L622.657 1147.97L622.385 1148.7L623.324 1149.05ZM653.331 1152.42L654.303 1152.66L654.566 1151.56L653.442 1151.43L653.331 1152.42ZM642.5 1173.2L641.756 1172.53L641.756 1172.53L642.5 1173.2ZM622.258 1186.87L622.62 1187.8L622.626 1187.8L622.258 1186.87ZM594.027 1190.66C580.495 1190.66 568.865 1187.85 559.1 1182.27L558.108 1184.01C568.229 1189.79 580.215 1192.66 594.027 1192.66V1190.66ZM559.106 1182.28C549.394 1176.63 541.921 1168.67 536.679 1158.36L534.897 1159.27C540.308 1169.91 548.046 1178.16 558.102 1184.01L559.106 1182.28ZM536.68 1158.36C531.438 1148 528.798 1135.76 528.798 1121.62H526.798C526.798 1136.01 529.485 1148.57 534.896 1159.27L536.68 1158.36ZM528.798 1121.62C528.798 1107.72 531.437 1095.57 536.681 1085.13L534.895 1084.24C529.486 1094.99 526.798 1107.46 526.798 1121.62H528.798ZM536.68 1085.14C541.987 1074.64 549.38 1066.5 558.861 1060.68L557.815 1058.98C548.001 1065 540.36 1073.42 534.896 1084.23L536.68 1085.14ZM558.864 1060.68C568.331 1054.81 579.477 1051.86 592.34 1051.86V1049.86C579.161 1049.86 567.639 1052.89 557.811 1058.98L558.864 1060.68ZM592.34 1051.86C600.634 1051.86 608.448 1053.2 615.79 1055.88L616.475 1054.01C608.902 1051.24 600.854 1049.86 592.34 1049.86V1051.86ZM615.798 1055.89C623.177 1058.5 629.681 1062.57 635.319 1068.09L636.719 1066.66C630.874 1060.94 624.121 1056.71 616.466 1054L615.798 1055.89ZM635.323 1068.09C641.003 1073.6 645.486 1080.63 648.756 1089.21L650.625 1088.5C647.267 1079.69 642.635 1072.39 636.715 1066.66L635.323 1068.09ZM648.757 1089.22C652.017 1097.71 653.662 1107.89 653.662 1119.75H655.662C655.662 1107.71 653.993 1097.28 650.624 1088.5L648.757 1089.22ZM653.662 1119.75V1129.61H655.662V1119.75H653.662ZM654.662 1128.61H542.89V1130.61H654.662V1128.61ZM543.89 1129.61V1107.95H541.89V1129.61H543.89ZM542.89 1108.95H623.856V1106.95H542.89V1108.95ZM624.856 1107.94C624.796 1101.64 623.432 1096 620.74 1091.04L618.982 1092C621.499 1096.63 622.798 1101.94 622.856 1107.95L624.856 1107.94ZM620.742 1091.05C618.053 1086.04 614.286 1082.09 609.453 1079.21L608.43 1080.93C612.948 1083.62 616.461 1087.3 618.98 1091.99L620.742 1091.05ZM609.458 1079.21C604.664 1076.32 599.095 1074.9 592.784 1074.9V1076.9C598.784 1076.9 603.986 1078.25 608.425 1080.93L609.458 1079.21ZM592.784 1074.9C586.045 1074.9 580.082 1076.54 574.931 1079.85L576.013 1081.53C580.805 1078.45 586.384 1076.9 592.784 1076.9V1074.9ZM574.938 1079.84C569.822 1083.07 565.826 1087.34 562.962 1092.64L564.722 1093.59C567.421 1088.6 571.179 1084.58 576.006 1081.54L574.938 1079.84ZM562.96 1092.65C560.157 1097.89 558.73 1103.64 558.669 1109.89L560.669 1109.91C560.727 1103.96 562.082 1098.53 564.724 1093.59L562.96 1092.65ZM558.669 1109.9V1128.81H560.669V1109.9H558.669ZM558.669 1128.81C558.669 1136.86 560.142 1143.83 563.129 1149.68L564.91 1148.77C562.097 1143.26 560.669 1136.62 560.669 1128.81H558.669ZM563.131 1149.69C566.114 1155.47 570.298 1159.93 575.681 1163.05L576.684 1161.32C571.649 1158.41 567.725 1154.23 564.908 1148.77L563.131 1149.69ZM575.688 1163.06C581.07 1166.12 587.342 1167.63 594.471 1167.63V1165.63C587.631 1165.63 581.711 1164.18 576.676 1161.32L575.688 1163.06ZM594.471 1167.63C599.239 1167.63 603.583 1166.96 607.491 1165.62L606.841 1163.73C603.173 1164.99 599.054 1165.63 594.471 1165.63V1167.63ZM607.504 1165.62C611.413 1164.21 614.817 1162.16 617.704 1159.46L616.337 1158C613.66 1160.5 610.495 1162.42 606.828 1163.73L607.504 1165.62ZM617.704 1159.46C620.607 1156.74 622.791 1153.38 624.262 1149.4L622.385 1148.7C621.015 1152.42 618.996 1155.51 616.337 1158L617.704 1159.46ZM623.212 1150.04L653.219 1153.42L653.442 1151.43L623.435 1148.06L623.212 1150.04ZM652.358 1152.19C650.502 1159.96 646.969 1166.74 641.756 1172.53L643.243 1173.87C648.684 1167.82 652.372 1160.74 654.303 1152.66L652.358 1152.19ZM641.756 1172.53C636.604 1178.26 629.991 1182.73 621.89 1185.94L622.626 1187.8C630.979 1184.49 637.86 1179.85 643.243 1173.87L641.756 1172.53ZM621.896 1185.94C613.805 1189.08 604.521 1190.66 594.027 1190.66V1192.66C604.721 1192.66 614.257 1191.05 622.62 1187.8L621.896 1185.94ZM702.699 1052.64L703.577 1052.16L703.292 1051.64H702.699V1052.64ZM730.221 1102.97L729.343 1103.45L730.214 1105.05L731.095 1103.46L730.221 1102.97ZM758.186 1052.64V1051.64H757.598L757.312 1052.15L758.186 1052.64ZM792.188 1052.64L793.044 1053.15L793.959 1051.64H792.188V1052.64ZM751.084 1120.82L750.227 1120.3L749.913 1120.82L750.231 1121.34L751.084 1120.82ZM792.898 1189V1190H794.685L793.751 1188.48L792.898 1189ZM759.074 1189L758.212 1189.51L758.501 1190H759.074V1189ZM730.221 1139.91L731.083 1139.4L730.217 1137.93L729.357 1139.4L730.221 1139.91ZM701.634 1189V1190H702.209L702.498 1189.5L701.634 1189ZM667.543 1189L666.689 1188.48L665.763 1190H667.543V1189ZM709.091 1120.82L709.945 1121.34L710.258 1120.82L709.951 1120.31L709.091 1120.82ZM668.608 1052.64V1051.64H666.852L667.749 1053.15L668.608 1052.64ZM701.822 1053.12L729.343 1103.45L731.098 1102.49L703.577 1052.16L701.822 1053.12ZM731.095 1103.46L759.06 1053.12L757.312 1052.15L729.347 1102.49L731.095 1103.46ZM758.186 1053.64H792.188V1051.64H758.186V1053.64ZM791.332 1052.12L750.227 1120.3L751.94 1121.33L793.044 1053.15L791.332 1052.12ZM750.231 1121.34L792.046 1189.52L793.751 1188.48L751.936 1120.3L750.231 1121.34ZM792.898 1188H759.074V1190H792.898V1188ZM759.936 1188.49L731.083 1139.4L729.359 1140.41L758.212 1189.51L759.936 1188.49ZM729.357 1139.4L700.77 1188.5L702.498 1189.5L731.085 1140.41L729.357 1139.4ZM701.634 1188H667.543V1190H701.634V1188ZM668.397 1189.52L709.945 1121.34L708.238 1120.3L666.689 1188.48L668.397 1189.52ZM709.951 1120.31L669.468 1052.13L667.749 1053.15L708.232 1121.33L709.951 1120.31ZM668.608 1053.64H702.699V1051.64H668.608V1053.64ZM974.289 1057.16L973.294 1057.27L973.39 1058.16H974.289V1057.16ZM963.813 1039.05L963.234 1039.87L963.238 1039.87L963.813 1039.05ZM922.353 1035.68L922.742 1036.6L922.742 1036.6L922.353 1035.68ZM911.078 1044.11L910.272 1043.52L910.272 1043.52L911.078 1044.11ZM907.083 1056.28L906.083 1056.26V1056.28H907.083ZM909.658 1066.13L908.807 1066.66L908.811 1066.66L908.815 1066.67L909.658 1066.13ZM916.849 1073.23L916.306 1074.07L916.317 1074.08L916.849 1073.23ZM926.881 1078.03L926.546 1078.97L926.546 1078.97L926.881 1078.03ZM937.978 1081.31L938.221 1080.34L938.21 1080.34L937.978 1081.31ZM955.024 1085.57L954.781 1086.54L954.789 1086.55L954.797 1086.55L955.024 1085.57ZM974.821 1092.05L974.426 1092.97L974.429 1092.97L974.821 1092.05ZM991.955 1102.35L991.32 1103.12L991.324 1103.13L991.955 1102.35ZM1000.3 1166.1L1001.13 1166.66L1001.13 1166.65L1000.3 1166.1ZM976.686 1185L977.088 1185.92L977.09 1185.92L976.686 1185ZM902.644 1185.18L902.255 1186.1L902.257 1186.1L902.644 1185.18ZM878.319 1166.01L877.496 1166.57L877.499 1166.58L878.319 1166.01ZM868.909 1135.29V1134.29H867.869L867.909 1135.33L868.909 1135.29ZM901.313 1135.29L902.31 1135.21L902.241 1134.29H901.313V1135.29ZM907.172 1151.09L907.946 1150.46L907.946 1150.46L907.172 1151.09ZM920.578 1160.5L920.225 1161.44L920.229 1161.44L920.578 1160.5ZM958.042 1160.41L958.41 1161.34L958.415 1161.34L958.042 1160.41ZM970.826 1151.36L971.607 1151.98L971.612 1151.98L970.826 1151.36ZM975.531 1137.69L976.531 1137.7L976.532 1137.69L976.531 1137.67L975.531 1137.69ZM971.359 1125.97L970.604 1126.62L970.61 1126.63L971.359 1125.97ZM959.906 1118.15L959.504 1119.07L959.511 1119.07L959.518 1119.08L959.906 1118.15ZM942.861 1112.47L942.612 1113.44L942.614 1113.44L942.861 1112.47ZM922.176 1107.15L922.425 1106.18L922.424 1106.18L922.176 1107.15ZM886.664 1089.66L885.991 1090.4L885.996 1090.4L886.664 1089.66ZM882.403 1030.18L881.594 1029.59L881.592 1029.59L882.403 1030.18ZM906.284 1011.44L906.688 1012.36L906.692 1012.36L906.284 1011.44ZM974.377 1011.44L973.957 1012.35L973.964 1012.35L974.377 1011.44ZM997.371 1030L996.552 1030.57L996.554 1030.58L997.371 1030ZM1005.98 1057.16V1058.16H1007L1006.98 1057.15L1005.98 1057.16ZM975.283 1057.06C974.425 1049.03 970.788 1042.73 964.387 1038.23L963.238 1039.87C969.148 1044.02 972.495 1049.79 973.294 1057.27L975.283 1057.06ZM964.391 1038.24C958.081 1033.77 949.93 1031.57 940.02 1031.57V1033.57C949.642 1033.57 957.352 1035.7 963.234 1039.87L964.391 1038.24ZM940.02 1031.57C933.058 1031.57 927.03 1032.62 921.965 1034.76L922.742 1036.6C927.501 1034.59 933.251 1033.57 940.02 1033.57V1031.57ZM921.965 1034.76C916.921 1036.89 913.003 1039.8 910.272 1043.52L911.885 1044.7C914.361 1041.33 917.961 1038.62 922.742 1036.6L921.965 1034.76ZM910.272 1043.52C907.54 1047.25 906.145 1051.51 906.083 1056.26L908.083 1056.29C908.14 1051.93 909.408 1048.08 911.885 1044.7L910.272 1043.52ZM906.083 1056.28C906.083 1060.22 906.978 1063.69 908.807 1066.66L910.509 1065.61C908.905 1063.01 908.083 1059.91 908.083 1056.28H906.083ZM908.815 1066.67C910.674 1069.58 913.178 1072.05 916.306 1074.07L917.392 1072.39C914.483 1070.51 912.193 1068.24 910.501 1065.59L908.815 1066.67ZM916.317 1074.08C919.403 1076.02 922.814 1077.65 926.546 1078.97L927.215 1077.08C923.608 1075.8 920.331 1074.24 917.38 1072.39L916.317 1074.08ZM926.546 1078.97C930.249 1080.28 933.983 1081.39 937.747 1082.28L938.21 1080.34C934.516 1079.46 930.852 1078.37 927.215 1077.08L926.546 1078.97ZM937.736 1082.28L954.781 1086.54L955.266 1084.6L938.221 1080.34L937.736 1082.28ZM954.797 1086.55C961.606 1088.13 968.149 1090.27 974.426 1092.97L975.216 1091.14C968.828 1088.39 962.172 1086.21 955.25 1084.6L954.797 1086.55ZM974.429 1092.97C980.739 1095.66 986.367 1099.05 991.32 1103.12L992.591 1101.58C987.482 1097.37 981.687 1093.89 975.213 1091.13L974.429 1092.97ZM991.324 1103.13C996.305 1107.18 1000.24 1112.07 1003.14 1117.81L1004.92 1116.91C1001.9 1110.92 997.786 1105.81 992.587 1101.58L991.324 1103.13ZM1003.14 1117.81C1006.01 1123.5 1007.47 1130.21 1007.47 1137.95H1009.47C1009.47 1129.96 1007.96 1122.93 1004.92 1116.91L1003.14 1117.81ZM1007.47 1137.95C1007.47 1148.43 1004.79 1157.61 999.47 1165.54L1001.13 1166.65C1006.7 1158.36 1009.47 1148.79 1009.47 1137.95H1007.47ZM999.472 1165.53C994.148 1173.41 986.435 1179.6 976.281 1184.09L977.09 1185.92C987.532 1181.3 995.563 1174.88 1001.13 1166.66L999.472 1165.53ZM976.283 1184.09C966.203 1188.52 953.949 1190.75 939.487 1190.75V1192.75C954.146 1192.75 966.69 1190.49 977.088 1185.92L976.283 1184.09ZM939.487 1190.75C925.443 1190.75 913.299 1188.58 903.032 1184.26L902.257 1186.1C912.823 1190.55 925.241 1192.75 939.487 1192.75V1190.75ZM903.034 1184.26C892.832 1179.95 884.881 1173.67 879.139 1165.43L877.499 1166.58C883.476 1175.15 891.741 1181.66 902.255 1186.1L903.034 1184.26ZM879.142 1165.44C873.468 1157.22 870.375 1147.17 869.908 1135.25L867.909 1135.33C868.389 1147.56 871.57 1157.99 877.496 1166.57L879.142 1165.44ZM868.909 1136.29H901.313V1134.29H868.909V1136.29ZM900.315 1135.36C900.802 1141.87 902.814 1147.34 906.398 1151.72L907.946 1150.46C904.664 1146.44 902.771 1141.38 902.31 1135.21L900.315 1135.36ZM906.398 1151.72C909.951 1156.07 914.57 1159.31 920.225 1161.44L920.93 1159.57C915.576 1157.55 911.258 1154.51 907.946 1150.46L906.398 1151.72ZM920.229 1161.44C925.92 1163.56 932.255 1164.61 939.221 1164.61V1162.61C932.456 1162.61 926.362 1161.59 920.927 1159.56L920.229 1161.44ZM939.221 1164.61C946.48 1164.61 952.883 1163.53 958.41 1161.34L957.674 1159.48C952.43 1161.56 946.285 1162.61 939.221 1162.61V1164.61ZM958.415 1161.34C963.989 1159.1 968.403 1155.99 971.607 1151.98L970.045 1150.73C967.094 1154.42 962.985 1157.35 957.669 1159.49L958.415 1161.34ZM971.612 1151.98C974.833 1147.89 976.47 1143.12 976.531 1137.7L974.531 1137.67C974.475 1142.67 972.975 1147.01 970.041 1150.74L971.612 1151.98ZM976.531 1137.67C976.47 1132.74 975.013 1128.59 972.108 1125.3L970.61 1126.63C973.15 1129.5 974.475 1133.16 974.532 1137.7L976.531 1137.67ZM972.114 1125.31C969.267 1122.03 965.31 1119.35 960.295 1117.23L959.518 1119.08C964.328 1121.1 968.006 1123.63 970.604 1126.62L972.114 1125.31ZM960.308 1117.24C955.394 1115.08 949.658 1113.17 943.108 1111.5L942.614 1113.44C949.085 1115.09 954.713 1116.97 959.504 1119.07L960.308 1117.24ZM943.11 1111.5L922.425 1106.18L921.926 1108.11L942.612 1113.44L943.11 1111.5ZM922.424 1106.18C907.558 1102.36 895.881 1096.59 887.332 1088.91L885.996 1090.4C894.848 1098.35 906.845 1104.24 921.927 1108.11L922.424 1106.18ZM887.338 1088.92C878.93 1081.26 874.703 1071.09 874.703 1058.32H872.703C872.703 1071.58 877.117 1082.31 885.991 1090.4L887.338 1088.92ZM874.703 1058.32C874.703 1047.8 877.547 1038.63 883.214 1030.76L881.592 1029.59C875.659 1037.82 872.703 1047.41 872.703 1058.32H874.703ZM883.211 1030.76C888.956 1022.87 896.77 1016.73 906.688 1012.36L905.881 1010.53C895.675 1015.03 887.568 1021.38 881.594 1029.59L883.211 1030.76ZM906.692 1012.36C916.607 1007.92 927.858 1005.7 940.464 1005.7V1003.7C927.62 1003.7 916.084 1005.97 905.876 1010.53L906.692 1012.36ZM940.464 1005.7C953.251 1005.7 964.406 1007.92 973.957 1012.35L974.798 1010.54C964.935 1005.97 953.482 1003.7 940.464 1003.7V1005.7ZM973.964 1012.35C983.585 1016.73 991.102 1022.8 996.552 1030.57L998.19 1029.42C992.513 1021.33 984.701 1015.04 974.791 1010.53L973.964 1012.35ZM996.554 1030.58C1001.99 1038.27 1004.81 1047.13 1004.98 1057.18L1006.98 1057.15C1006.8 1046.72 1003.87 1037.47 998.188 1029.42L996.554 1030.58ZM1005.98 1056.16H974.289V1058.16H1005.98V1056.16ZM1041.72 1239.07L1041.91 1238.09L1041.9 1238.09L1041.72 1239.07ZM1032.93 1236.76L1031.98 1236.48L1031.72 1237.35L1032.56 1237.69L1032.93 1236.76ZM1040.39 1211.73L1040.67 1210.77L1039.72 1210.49L1039.43 1211.44L1040.39 1211.73ZM1052.91 1213.68L1052.89 1212.68L1052.91 1213.68ZM1062.59 1210.22L1061.98 1209.43L1061.97 1209.43L1061.96 1209.44L1062.59 1210.22ZM1069.78 1199.21L1070.71 1199.56L1070.71 1199.56L1069.78 1199.21ZM1072.53 1191.84L1073.47 1192.19L1073.59 1191.85L1073.47 1191.51L1072.53 1191.84ZM1023.08 1052.64V1051.64H1021.66L1022.14 1052.97L1023.08 1052.64ZM1057.17 1052.64L1058.13 1052.34L1057.91 1051.64H1057.17V1052.64ZM1088.6 1155.62L1087.64 1155.91L1087.86 1156.62H1088.6V1155.62ZM1090.02 1155.62V1156.62H1090.76L1090.98 1155.91L1090.02 1155.62ZM1121.54 1052.64V1051.64H1120.8L1120.58 1052.34L1121.54 1052.64ZM1155.72 1052.64L1156.66 1052.97L1157.13 1051.64H1155.72V1052.64ZM1101.12 1205.51L1100.17 1205.18L1100.17 1205.18L1101.12 1205.51ZM1091 1224.07L1090.22 1223.44L1090.22 1223.44L1091 1224.07ZM1075.55 1235.96L1075.14 1235.05L1075.13 1235.06L1075.55 1235.96ZM1053.89 1239.14C1049.56 1239.14 1045.57 1238.79 1041.91 1238.09L1041.54 1240.05C1045.34 1240.78 1049.45 1241.14 1053.89 1241.14V1239.14ZM1041.9 1238.09C1038.26 1237.44 1035.41 1236.69 1033.31 1235.84L1032.56 1237.69C1034.84 1238.61 1037.85 1239.4 1041.55 1240.06L1041.9 1238.09ZM1033.89 1237.05L1041.35 1212.01L1039.43 1211.44L1031.98 1236.48L1033.89 1237.05ZM1040.11 1212.69C1044.85 1214.07 1049.13 1214.74 1052.93 1214.68L1052.89 1212.68C1049.35 1212.74 1045.28 1212.11 1040.67 1210.77L1040.11 1212.69ZM1052.93 1214.68C1056.81 1214.62 1060.26 1213.39 1063.22 1211L1061.96 1209.44C1059.35 1211.55 1056.35 1212.62 1052.89 1212.68L1052.93 1214.68ZM1063.2 1211.01C1066.24 1208.66 1068.73 1204.8 1070.71 1199.56L1068.84 1198.85C1066.92 1203.92 1064.61 1207.39 1061.98 1209.43L1063.2 1211.01ZM1070.71 1199.56L1073.47 1192.19L1071.59 1191.49L1068.84 1198.86L1070.71 1199.56ZM1073.47 1191.51L1024.02 1052.3L1022.14 1052.97L1071.59 1192.18L1073.47 1191.51ZM1023.08 1053.64H1057.17V1051.64H1023.08V1053.64ZM1056.21 1052.93L1087.64 1155.91L1089.56 1155.33L1058.13 1052.34L1056.21 1052.93ZM1088.6 1156.62H1090.02V1154.62H1088.6V1156.62ZM1090.98 1155.91L1122.49 1052.93L1120.58 1052.34L1089.06 1155.33L1090.98 1155.91ZM1121.54 1053.64H1155.72V1051.64H1121.54V1053.64ZM1154.77 1052.3L1100.17 1205.18L1102.06 1205.85L1156.66 1052.97L1154.77 1052.3ZM1100.17 1205.18C1097.66 1212.31 1094.34 1218.39 1090.22 1223.44L1091.77 1224.7C1096.06 1219.45 1099.48 1213.16 1102.06 1205.85L1100.17 1205.18ZM1090.22 1223.44C1086.11 1228.53 1081.09 1232.39 1075.14 1235.05L1075.96 1236.88C1082.2 1234.09 1087.47 1230.03 1091.77 1224.7L1090.22 1223.44ZM1075.13 1235.06C1069.25 1237.76 1062.18 1239.14 1053.89 1239.14V1241.14C1062.4 1241.14 1069.77 1239.73 1075.97 1236.87L1075.13 1235.06ZM1283.23 1088.68L1283.34 1089.67L1284.41 1089.56L1284.21 1088.49L1283.23 1088.68ZM1253.93 1091.88L1252.97 1092.15L1253.2 1092.96L1254.04 1092.87L1253.93 1091.88ZM1249.58 1083.53L1248.79 1084.14L1248.8 1084.15L1249.58 1083.53ZM1241.42 1077.23L1241.84 1076.32L1241.84 1076.32L1241.42 1077.23ZM1211.94 1079.18L1211.41 1078.34L1211.4 1078.34L1211.94 1079.18ZM1205.28 1090.46L1206.28 1090.47L1206.28 1090.46L1206.28 1090.44L1205.28 1090.46ZM1209.63 1100.13L1208.99 1100.9L1209 1100.9L1209.63 1100.13ZM1224.55 1106.26L1224.32 1107.23L1224.33 1107.23L1224.34 1107.24L1224.55 1106.26ZM1247.81 1111.23L1248.02 1110.25L1248.02 1110.25L1247.81 1111.23ZM1276.57 1124.46L1275.88 1125.18L1275.88 1125.18L1276.57 1124.46ZM1286.16 1148.16L1287.16 1148.17L1287.16 1148.16L1286.16 1148.16ZM1278.61 1170.89L1277.82 1170.29L1277.82 1170.29L1278.61 1170.89ZM1258.11 1186.16L1258.49 1187.08L1258.49 1187.08L1258.11 1186.16ZM1187.62 1181.19L1187.05 1182.01L1187.05 1182.01L1187.62 1181.19ZM1169.42 1151.8L1169.32 1150.81L1168.27 1150.91L1168.43 1151.96L1169.42 1151.8ZM1200.76 1148.78L1201.73 1148.56L1201.53 1147.7L1200.66 1147.79L1200.76 1148.78ZM1209.81 1162.72L1210.37 1161.89L1210.37 1161.89L1209.81 1162.72ZM1246.21 1162.72L1245.65 1161.89L1245.65 1161.89L1246.21 1162.72ZM1248.7 1141.41L1248.04 1142.17L1248.05 1142.18L1248.7 1141.41ZM1234.85 1135.56L1235.06 1134.58L1235.05 1134.58L1234.85 1135.56ZM1211.59 1130.67L1211.79 1129.69L1211.79 1129.69L1211.59 1130.67ZM1182.56 1116.91L1181.84 1117.61L1181.84 1117.61L1182.56 1116.91ZM1173.23 1092.23L1174.23 1092.24L1174.23 1092.22L1173.23 1092.23ZM1180.07 1070.39L1179.27 1069.79L1179.27 1069.79L1180.07 1070.39ZM1199.51 1056.01L1199.89 1056.94L1199.89 1056.93L1199.51 1056.01ZM1266.1 1061.07L1265.5 1061.87L1265.5 1061.88L1266.1 1061.07ZM1283.12 1087.69L1253.83 1090.88L1254.04 1092.87L1283.34 1089.67L1283.12 1087.69ZM1254.9 1091.61C1254.03 1088.51 1252.51 1085.61 1250.37 1082.91L1248.8 1084.15C1250.8 1086.66 1252.18 1089.33 1252.97 1092.15L1254.9 1091.61ZM1250.38 1082.92C1248.25 1080.17 1245.39 1077.98 1241.84 1076.32L1240.99 1078.13C1244.3 1079.68 1246.89 1081.68 1248.79 1084.14L1250.38 1082.92ZM1241.84 1076.32C1238.24 1074.65 1233.88 1073.83 1228.81 1073.83V1075.83C1233.68 1075.83 1237.73 1076.61 1240.99 1078.13L1241.84 1076.32ZM1228.81 1073.83C1221.98 1073.83 1216.16 1075.31 1211.41 1078.34L1212.48 1080.02C1216.84 1077.25 1222.27 1075.83 1228.81 1075.83V1073.83ZM1211.4 1078.34C1206.67 1081.39 1204.22 1085.45 1204.28 1090.47L1206.28 1090.44C1206.23 1086.23 1208.22 1082.77 1212.48 1080.02L1211.4 1078.34ZM1204.28 1090.44C1204.22 1094.7 1205.79 1098.21 1208.99 1100.9L1210.28 1099.37C1207.55 1097.08 1206.23 1094.14 1206.28 1090.47L1204.28 1090.44ZM1209 1100.9C1212.2 1103.54 1217.35 1105.62 1224.32 1107.23L1224.77 1105.28C1217.9 1103.7 1213.11 1101.7 1210.27 1099.36L1209 1100.9ZM1224.34 1107.24L1247.6 1112.21L1248.02 1110.25L1224.76 1105.28L1224.34 1107.24ZM1247.6 1112.21C1260.41 1114.97 1269.79 1119.32 1275.88 1125.18L1277.27 1123.74C1270.81 1117.52 1261.02 1113.05 1248.02 1110.25L1247.6 1112.21ZM1275.88 1125.18C1282 1131.01 1285.1 1138.64 1285.16 1148.17L1287.16 1148.16C1287.1 1138.15 1283.82 1129.98 1277.26 1123.73L1275.88 1125.18ZM1285.16 1148.16C1285.1 1156.53 1282.65 1163.9 1277.82 1170.29L1279.41 1171.49C1284.52 1164.74 1287.1 1156.96 1287.16 1148.17L1285.16 1148.16ZM1277.82 1170.29C1273.03 1176.63 1266.34 1181.62 1257.72 1185.24L1258.49 1187.08C1267.39 1183.35 1274.38 1178.16 1279.41 1171.49L1277.82 1170.29ZM1257.72 1185.24C1249.1 1188.85 1239.18 1190.66 1227.92 1190.66V1192.66C1239.39 1192.66 1249.59 1190.81 1258.49 1187.08L1257.72 1185.24ZM1227.92 1190.66C1211.36 1190.66 1198.15 1187.2 1188.18 1180.36L1187.05 1182.01C1197.45 1189.14 1211.1 1192.66 1227.92 1192.66V1190.66ZM1188.19 1180.37C1178.24 1173.48 1172.32 1163.93 1170.41 1151.65L1168.43 1151.96C1170.42 1164.77 1176.64 1174.81 1187.05 1182.01L1188.19 1180.37ZM1169.51 1152.8L1200.85 1149.78L1200.66 1147.79L1169.32 1150.81L1169.51 1152.8ZM1199.78 1149.01C1201.25 1155.37 1204.4 1160.25 1209.25 1163.55L1210.37 1161.89C1205.99 1158.92 1203.1 1154.5 1201.73 1148.56L1199.78 1149.01ZM1209.25 1163.55C1214.08 1166.83 1220.3 1168.43 1227.83 1168.43V1166.43C1220.57 1166.43 1214.78 1164.89 1210.37 1161.89L1209.25 1163.55ZM1227.83 1168.43C1235.6 1168.43 1241.94 1166.83 1246.77 1163.55L1245.65 1161.89C1241.25 1164.88 1235.34 1166.43 1227.83 1166.43V1168.43ZM1246.77 1163.55C1251.65 1160.28 1254.22 1156.12 1254.22 1151.09H1252.22C1252.22 1155.3 1250.12 1158.89 1245.65 1161.89L1246.77 1163.55ZM1254.22 1151.09C1254.22 1146.89 1252.58 1143.38 1249.34 1140.65L1248.05 1142.18C1250.85 1144.54 1252.22 1147.48 1252.22 1151.09H1254.22ZM1249.35 1140.66C1246.21 1137.95 1241.4 1135.95 1235.06 1134.58L1234.63 1136.53C1240.84 1137.88 1245.27 1139.79 1248.04 1142.17L1249.35 1140.66ZM1235.05 1134.58L1211.79 1129.69L1211.38 1131.65L1234.64 1136.53L1235.05 1134.58ZM1211.79 1129.69C1198.82 1126.99 1189.36 1122.47 1183.27 1116.21L1181.84 1117.61C1188.3 1124.26 1198.2 1128.91 1211.38 1131.65L1211.79 1129.69ZM1183.28 1116.22C1177.2 1109.92 1174.18 1101.95 1174.23 1092.24L1172.23 1092.23C1172.17 1102.4 1175.36 1110.89 1181.84 1117.61L1183.28 1116.22ZM1174.23 1092.22C1174.18 1084.02 1176.4 1076.96 1180.87 1070.99L1179.27 1069.79C1174.51 1076.14 1172.17 1083.64 1172.23 1092.24L1174.23 1092.22ZM1180.87 1070.99C1185.42 1064.94 1191.75 1060.25 1199.89 1056.94L1199.14 1055.08C1190.71 1058.52 1184.07 1063.41 1179.27 1069.79L1180.87 1070.99ZM1199.89 1056.93C1208.1 1053.56 1217.58 1051.86 1228.37 1051.86V1049.86C1217.37 1049.86 1207.62 1051.59 1199.13 1055.09L1199.89 1056.93ZM1228.37 1051.86C1244.22 1051.86 1256.56 1055.24 1265.5 1061.87L1266.69 1060.27C1257.29 1053.29 1244.48 1049.86 1228.37 1049.86V1051.86ZM1265.5 1061.88C1274.53 1068.53 1280.1 1077.51 1282.25 1088.87L1284.21 1088.49C1281.98 1076.65 1276.13 1067.23 1266.69 1060.27L1265.5 1061.88ZM1378.25 1052.64H1379.25V1051.64H1378.25V1052.64ZM1378.25 1077.49V1078.49H1379.25V1077.49H1378.25ZM1299.86 1077.49H1298.86V1078.49H1299.86V1077.49ZM1299.86 1052.64V1051.64H1298.86V1052.64H1299.86ZM1319.22 1019.97V1018.97H1318.22V1019.97H1319.22ZM1351.35 1019.97H1352.35V1018.97H1351.35V1019.97ZM1353.31 1157.93L1352.44 1158.42L1352.44 1158.43L1352.45 1158.45L1353.31 1157.93ZM1358.63 1162.54L1358.28 1163.48L1358.28 1163.48L1358.63 1162.54ZM1371.42 1163.34L1371.25 1162.36L1371.24 1162.36L1371.42 1163.34ZM1375.32 1162.54L1376.3 1162.33L1376.08 1161.31L1375.07 1161.58L1375.32 1162.54ZM1380.74 1187.67L1381.07 1188.61L1381.9 1188.32L1381.72 1187.46L1380.74 1187.67ZM1373.37 1189.62L1373.15 1188.65L1373.15 1188.65L1373.37 1189.62ZM1361.83 1190.86L1361.8 1189.86L1361.8 1189.86L1361.83 1190.86ZM1340.08 1187.22L1339.69 1188.15L1339.7 1188.15L1340.08 1187.22ZM1324.72 1174.62L1323.88 1175.17L1323.89 1175.17L1324.72 1174.62ZM1319.22 1153.31L1320.22 1153.32V1153.31H1319.22ZM1377.25 1052.64V1077.49H1379.25V1052.64H1377.25ZM1378.25 1076.49H1299.86V1078.49H1378.25V1076.49ZM1300.86 1077.49V1052.64H1298.86V1077.49H1300.86ZM1299.86 1053.64H1378.25V1051.64H1299.86V1053.64ZM1319.22 1020.97H1351.35V1018.97H1319.22V1020.97ZM1350.35 1019.97V1147.98H1352.35V1019.97H1350.35ZM1350.35 1147.98C1350.35 1152.38 1351.01 1155.89 1352.44 1158.42L1354.18 1157.44C1353 1155.34 1352.35 1152.23 1352.35 1147.98H1350.35ZM1352.45 1158.45C1353.91 1160.86 1355.86 1162.56 1358.28 1163.48L1358.99 1161.61C1357.03 1160.87 1355.42 1159.49 1354.16 1157.41L1352.45 1158.45ZM1358.28 1163.48C1360.6 1164.36 1363.15 1164.79 1365.91 1164.79V1162.79C1363.36 1162.79 1361.05 1162.39 1358.99 1161.61L1358.28 1163.48ZM1365.91 1164.79C1367.97 1164.79 1369.87 1164.64 1371.59 1164.33L1371.24 1162.36C1369.65 1162.64 1367.88 1162.79 1365.91 1162.79V1164.79ZM1371.59 1164.33C1373.31 1164.03 1374.65 1163.76 1375.58 1163.51L1375.07 1161.58C1374.22 1161.8 1372.96 1162.06 1371.25 1162.36L1371.59 1164.33ZM1374.35 1162.75L1379.76 1187.88L1381.72 1187.46L1376.3 1162.33L1374.35 1162.75ZM1380.41 1186.72C1378.75 1187.3 1376.34 1187.94 1373.15 1188.65L1373.59 1190.6C1376.8 1189.88 1379.3 1189.22 1381.07 1188.61L1380.41 1186.72ZM1373.15 1188.65C1370.1 1189.34 1366.32 1189.75 1361.8 1189.86L1361.86 1191.86C1366.45 1191.74 1370.37 1191.33 1373.59 1190.6L1373.15 1188.65ZM1361.8 1189.86C1353.87 1190.1 1346.76 1188.9 1340.46 1186.3L1339.7 1188.15C1346.3 1190.87 1353.69 1192.1 1361.86 1191.86L1361.8 1189.86ZM1340.47 1186.3C1334.19 1183.65 1329.23 1179.58 1325.55 1174.06L1323.89 1175.17C1327.79 1181.02 1333.06 1185.35 1339.69 1188.15L1340.47 1186.3ZM1325.56 1174.07C1321.96 1168.59 1320.16 1161.69 1320.22 1153.32L1318.22 1153.3C1318.16 1161.97 1320.02 1169.28 1323.88 1175.17L1325.56 1174.07ZM1320.22 1153.31V1019.97H1318.22V1153.31H1320.22ZM1426.11 1183.14L1425.61 1184.01L1425.62 1184.01L1426.11 1183.14ZM1403.3 1158.82L1402.41 1159.27L1402.41 1159.27L1403.3 1158.82ZM1403.3 1084.69L1402.41 1084.23L1402.4 1084.24L1403.3 1084.69ZM1425.85 1059.83L1426.37 1060.68L1426.37 1060.68L1425.85 1059.83ZM1483.64 1054.94L1483.3 1055.88L1483.31 1055.89L1483.64 1054.94ZM1503.53 1067.37L1502.83 1068.09L1502.83 1068.09L1503.53 1067.37ZM1517.2 1088.86L1516.27 1089.21L1516.27 1089.22L1517.2 1088.86ZM1522.17 1129.61V1130.61H1523.17V1129.61H1522.17ZM1410.4 1129.61H1409.4V1130.61H1410.4V1129.61ZM1410.4 1107.95V1106.95H1409.4V1107.95H1410.4ZM1491.37 1107.95V1108.95H1492.38L1492.37 1107.94L1491.37 1107.95ZM1487.37 1091.52L1486.49 1091.99L1486.49 1092L1487.37 1091.52ZM1476.45 1080.07L1475.94 1080.93L1475.94 1080.93L1476.45 1080.07ZM1442.98 1080.69L1443.52 1081.54L1443.52 1081.53L1442.98 1080.69ZM1431.35 1093.12L1430.47 1092.64L1430.47 1092.65L1431.35 1093.12ZM1427.18 1109.9L1426.18 1109.89V1109.9H1427.18ZM1431.53 1149.23L1430.64 1149.68L1430.64 1149.69L1431.53 1149.23ZM1443.69 1162.19L1443.19 1163.05L1443.2 1163.06L1443.69 1162.19ZM1474.68 1164.67L1475 1165.62L1475.01 1165.62L1474.68 1164.67ZM1484.53 1158.73L1483.85 1158L1484.53 1158.73ZM1490.83 1149.05L1490.95 1148.06L1490.17 1147.97L1489.9 1148.7L1490.83 1149.05ZM1520.84 1152.42L1521.81 1152.66L1522.08 1151.56L1520.95 1151.43L1520.84 1152.42ZM1510.01 1173.2L1509.27 1172.53L1509.27 1172.53L1510.01 1173.2ZM1489.77 1186.87L1490.13 1187.8L1490.14 1187.8L1489.77 1186.87ZM1461.54 1190.66C1448 1190.66 1436.38 1187.85 1426.61 1182.27L1425.62 1184.01C1435.74 1189.79 1447.72 1192.66 1461.54 1192.66V1190.66ZM1426.62 1182.28C1416.9 1176.63 1409.43 1168.67 1404.19 1158.36L1402.41 1159.27C1407.82 1169.91 1415.56 1178.16 1425.61 1184.01L1426.62 1182.28ZM1404.19 1158.36C1398.95 1148 1396.31 1135.76 1396.31 1121.62H1394.31C1394.31 1136.01 1396.99 1148.57 1402.41 1159.27L1404.19 1158.36ZM1396.31 1121.62C1396.31 1107.72 1398.95 1095.57 1404.19 1085.13L1402.4 1084.24C1397 1094.99 1394.31 1107.46 1394.31 1121.62H1396.31ZM1404.19 1085.14C1409.5 1074.64 1416.89 1066.5 1426.37 1060.68L1425.32 1058.98C1415.51 1065 1407.87 1073.42 1402.41 1084.23L1404.19 1085.14ZM1426.37 1060.68C1435.84 1054.81 1446.99 1051.86 1459.85 1051.86V1049.86C1446.67 1049.86 1435.15 1052.89 1425.32 1058.98L1426.37 1060.68ZM1459.85 1051.86C1468.14 1051.86 1475.96 1053.2 1483.3 1055.88L1483.99 1054.01C1476.41 1051.24 1468.36 1049.86 1459.85 1049.86V1051.86ZM1483.31 1055.89C1490.69 1058.5 1497.19 1062.57 1502.83 1068.09L1504.23 1066.66C1498.38 1060.94 1491.63 1056.71 1483.98 1054L1483.31 1055.89ZM1502.83 1068.09C1508.51 1073.6 1513 1080.63 1516.27 1089.21L1518.13 1088.5C1514.78 1079.69 1510.14 1072.39 1504.22 1066.66L1502.83 1068.09ZM1516.27 1089.22C1519.53 1097.71 1521.17 1107.89 1521.17 1119.75H1523.17C1523.17 1107.71 1521.5 1097.28 1518.13 1088.5L1516.27 1089.22ZM1521.17 1119.75V1129.61H1523.17V1119.75H1521.17ZM1522.17 1128.61H1410.4V1130.61H1522.17V1128.61ZM1411.4 1129.61V1107.95H1409.4V1129.61H1411.4ZM1410.4 1108.95H1491.37V1106.95H1410.4V1108.95ZM1492.37 1107.94C1492.31 1101.64 1490.94 1096 1488.25 1091.04L1486.49 1092C1489.01 1096.63 1490.31 1101.94 1490.37 1107.95L1492.37 1107.94ZM1488.25 1091.05C1485.56 1086.04 1481.8 1082.09 1476.96 1079.21L1475.94 1080.93C1480.46 1083.62 1483.97 1087.3 1486.49 1091.99L1488.25 1091.05ZM1476.97 1079.21C1472.17 1076.32 1466.6 1074.9 1460.29 1074.9V1076.9C1466.29 1076.9 1471.5 1078.25 1475.94 1080.93L1476.97 1079.21ZM1460.29 1074.9C1453.55 1074.9 1447.59 1076.54 1442.44 1079.85L1443.52 1081.53C1448.32 1078.45 1453.89 1076.9 1460.29 1076.9V1074.9ZM1442.45 1079.84C1437.33 1083.07 1433.34 1087.34 1430.47 1092.64L1432.23 1093.59C1434.93 1088.6 1438.69 1084.58 1443.52 1081.54L1442.45 1079.84ZM1430.47 1092.65C1427.67 1097.89 1426.24 1103.64 1426.18 1109.89L1428.18 1109.91C1428.24 1103.96 1429.59 1098.53 1432.23 1093.59L1430.47 1092.65ZM1426.18 1109.9V1128.81H1428.18V1109.9H1426.18ZM1426.18 1128.81C1426.18 1136.86 1427.65 1143.83 1430.64 1149.68L1432.42 1148.77C1429.61 1143.26 1428.18 1136.62 1428.18 1128.81H1426.18ZM1430.64 1149.69C1433.62 1155.47 1437.81 1159.93 1443.19 1163.05L1444.19 1161.32C1439.16 1158.41 1435.24 1154.23 1432.42 1148.77L1430.64 1149.69ZM1443.2 1163.06C1448.58 1166.12 1454.85 1167.63 1461.98 1167.63V1165.63C1455.14 1165.63 1449.22 1164.18 1444.19 1161.32L1443.2 1163.06ZM1461.98 1167.63C1466.75 1167.63 1471.09 1166.96 1475 1165.62L1474.35 1163.73C1470.68 1164.99 1466.56 1165.63 1461.98 1165.63V1167.63ZM1475.01 1165.62C1478.92 1164.21 1482.33 1162.16 1485.21 1159.46L1483.85 1158C1481.17 1160.5 1478 1162.42 1474.34 1163.73L1475.01 1165.62ZM1485.21 1159.46C1488.12 1156.74 1490.3 1153.38 1491.77 1149.4L1489.9 1148.7C1488.52 1152.42 1486.51 1155.51 1483.85 1158L1485.21 1159.46ZM1490.72 1150.04L1520.73 1153.42L1520.95 1151.43L1490.95 1148.06L1490.72 1150.04ZM1519.87 1152.19C1518.01 1159.96 1514.48 1166.74 1509.27 1172.53L1510.75 1173.87C1516.19 1167.82 1519.88 1160.74 1521.81 1152.66L1519.87 1152.19ZM1509.27 1172.53C1504.11 1178.26 1497.5 1182.73 1489.4 1185.94L1490.14 1187.8C1498.49 1184.49 1505.37 1179.85 1510.75 1173.87L1509.27 1172.53ZM1489.41 1185.94C1481.32 1189.08 1472.03 1190.66 1461.54 1190.66V1192.66C1472.23 1192.66 1481.77 1191.05 1490.13 1187.8L1489.41 1185.94ZM1546.86 1189H1545.86V1190H1546.86V1189ZM1546.86 1052.64V1051.64H1545.86V1052.64H1546.86ZM1577.58 1052.64H1578.58V1051.64H1577.58V1052.64ZM1577.58 1075.81H1576.58V1076.81H1577.58V1075.81ZM1579.18 1075.81V1076.81H1579.88L1580.12 1076.15L1579.18 1075.81ZM1593.29 1057.52L1593.85 1058.35L1593.85 1058.35L1593.29 1057.52ZM1640.17 1057.61L1639.59 1058.42L1639.6 1058.43L1640.17 1057.61ZM1653.66 1075.81L1652.71 1076.13L1652.94 1076.81H1653.66V1075.81ZM1655.08 1075.81V1076.81H1655.76L1656.01 1076.18L1655.08 1075.81ZM1670.35 1057.7L1670.88 1058.54L1670.88 1058.54L1670.35 1057.7ZM1738.62 1189V1190H1739.62V1189H1738.62ZM1706.4 1189H1705.4V1190H1706.4V1189ZM1699.65 1083.89L1698.99 1084.64L1698.99 1084.64L1699.65 1083.89ZM1664.94 1085.22L1664.19 1084.55L1664.19 1084.55L1664.94 1085.22ZM1658.45 1189V1190H1659.45V1189H1658.45ZM1626.94 1189H1625.94V1190H1626.94V1189ZM1620.55 1084.24L1619.84 1084.95L1619.84 1084.95L1620.55 1084.24ZM1591.43 1081.49L1591.95 1082.34L1591.96 1082.34L1591.43 1081.49ZM1582.37 1091.34L1583.25 1091.82L1583.26 1091.81L1582.37 1091.34ZM1579 1189V1190H1580V1189H1579ZM1547.86 1189V1052.64H1545.86V1189H1547.86ZM1546.86 1053.64H1577.58V1051.64H1546.86V1053.64ZM1576.58 1052.64V1075.81H1578.58V1052.64H1576.58ZM1577.58 1076.81H1579.18V1074.81H1577.58V1076.81ZM1580.12 1076.15C1582.89 1068.53 1587.46 1062.61 1593.85 1058.35L1592.74 1056.69C1585.98 1061.19 1581.15 1067.46 1578.24 1075.47L1580.12 1076.15ZM1593.85 1058.35C1600.23 1054.04 1607.87 1051.86 1616.82 1051.86V1049.86C1607.53 1049.86 1599.49 1052.12 1592.73 1056.69L1593.85 1058.35ZM1616.82 1051.86C1625.88 1051.86 1633.45 1054.07 1639.59 1058.42L1640.75 1056.79C1634.21 1052.15 1626.22 1049.86 1616.82 1049.86V1051.86ZM1639.6 1058.43C1645.8 1062.74 1650.17 1068.63 1652.71 1076.13L1654.61 1075.49C1651.94 1067.6 1647.31 1061.35 1640.74 1056.79L1639.6 1058.43ZM1653.66 1076.81H1655.08V1074.81H1653.66V1076.81ZM1656.01 1076.18C1658.95 1068.81 1663.89 1062.93 1670.88 1058.54L1669.82 1056.85C1662.49 1061.46 1657.25 1067.66 1654.15 1075.44L1656.01 1076.18ZM1670.88 1058.54C1677.92 1054.1 1686.28 1051.86 1696.01 1051.86V1049.86C1685.97 1049.86 1677.22 1052.18 1669.82 1056.85L1670.88 1058.54ZM1696.01 1051.86C1708.32 1051.86 1718.3 1055.74 1726.02 1063.46L1727.43 1062.05C1719.29 1053.91 1708.79 1049.86 1696.01 1049.86V1051.86ZM1726.02 1063.46C1733.7 1071.15 1737.62 1082.43 1737.62 1097.47H1739.62C1739.62 1082.09 1735.61 1070.23 1727.43 1062.05L1726.02 1063.46ZM1737.62 1097.47V1189H1739.62V1097.47H1737.62ZM1738.62 1188H1706.4V1190H1738.62V1188ZM1707.4 1189V1102.44H1705.4V1189H1707.4ZM1707.4 1102.44C1707.4 1093.81 1705.1 1087.3 1700.3 1083.13L1698.99 1084.64C1703.19 1088.29 1705.4 1094.14 1705.4 1102.44H1707.4ZM1700.31 1083.14C1695.61 1079 1689.87 1076.94 1683.14 1076.94V1078.94C1689.42 1078.94 1694.69 1080.85 1698.99 1084.64L1700.31 1083.14ZM1683.14 1076.94C1675.16 1076.94 1668.8 1079.45 1664.19 1084.55L1665.68 1085.89C1669.83 1081.28 1675.61 1078.94 1683.14 1078.94V1076.94ZM1664.19 1084.55C1659.68 1089.56 1657.45 1096.06 1657.45 1103.95H1659.45C1659.45 1096.45 1661.55 1090.46 1665.68 1085.89L1664.19 1084.55ZM1657.45 1103.95V1189H1659.45V1103.95H1657.45ZM1658.45 1188H1626.94V1190H1658.45V1188ZM1627.94 1189V1101.11H1625.94V1189H1627.94ZM1627.94 1101.11C1627.94 1093.85 1625.73 1087.95 1621.25 1083.53L1619.84 1084.95C1623.88 1088.93 1625.94 1094.28 1625.94 1101.11H1627.94ZM1621.25 1083.53C1616.84 1079.12 1611.06 1076.94 1604.03 1076.94V1078.94C1610.62 1078.94 1615.85 1080.96 1619.84 1084.95L1621.25 1083.53ZM1604.03 1076.94C1599.24 1076.94 1594.85 1078.17 1590.9 1080.64L1591.96 1082.34C1595.58 1080.07 1599.6 1078.94 1604.03 1078.94V1076.94ZM1590.91 1080.64C1586.95 1083.05 1583.81 1086.47 1581.49 1090.88L1583.26 1091.81C1585.43 1087.69 1588.33 1084.55 1591.95 1082.34L1590.91 1080.64ZM1581.49 1090.87C1579.15 1095.24 1578 1100.32 1578 1106.08H1580C1580 1100.59 1581.09 1095.85 1583.25 1091.82L1581.49 1090.87ZM1578 1106.08V1189H1580V1106.08H1578ZM1579 1188H1546.86V1190H1579V1188ZM1876.5 1088.68L1876.61 1089.67L1877.69 1089.56L1877.49 1088.49L1876.5 1088.68ZM1847.21 1091.88L1846.24 1092.15L1846.47 1092.96L1847.31 1092.87L1847.21 1091.88ZM1842.86 1083.53L1842.06 1084.14L1842.07 1084.15L1842.86 1083.53ZM1834.69 1077.23L1835.11 1076.32L1835.11 1076.32L1834.69 1077.23ZM1805.21 1079.18L1804.68 1078.34L1804.67 1078.34L1805.21 1079.18ZM1798.56 1090.46L1799.56 1090.47L1799.56 1090.46L1799.56 1090.44L1798.56 1090.46ZM1802.91 1100.13L1802.26 1100.9L1802.27 1100.9L1802.91 1100.13ZM1817.82 1106.26L1817.6 1107.23L1817.6 1107.23L1817.61 1107.24L1817.82 1106.26ZM1841.08 1111.23L1841.29 1110.25L1841.29 1110.25L1841.08 1111.23ZM1869.84 1124.46L1869.15 1125.18L1869.15 1125.18L1869.84 1124.46ZM1879.43 1148.16L1880.43 1148.17L1880.43 1148.16L1879.43 1148.16ZM1871.89 1170.89L1871.09 1170.29L1871.09 1170.29L1871.89 1170.89ZM1851.38 1186.16L1851.76 1187.08L1851.76 1187.08L1851.38 1186.16ZM1780.89 1181.19L1780.32 1182.01L1780.32 1182.01L1780.89 1181.19ZM1762.69 1151.8L1762.59 1150.81L1761.54 1150.91L1761.7 1151.96L1762.69 1151.8ZM1794.03 1148.78L1795 1148.56L1794.8 1147.7L1793.93 1147.79L1794.03 1148.78ZM1803.08 1162.72L1803.64 1161.89L1803.64 1161.89L1803.08 1162.72ZM1839.48 1162.72L1838.92 1161.89L1838.92 1161.89L1839.48 1162.72ZM1841.97 1141.41L1841.32 1142.17L1841.32 1142.18L1841.97 1141.41ZM1828.12 1135.56L1828.33 1134.58L1828.32 1134.58L1828.12 1135.56ZM1804.86 1130.67L1805.06 1129.69L1805.06 1129.69L1804.86 1130.67ZM1775.83 1116.91L1775.11 1117.61L1775.11 1117.61L1775.83 1116.91ZM1766.51 1092.23L1767.51 1092.24L1767.51 1092.22L1766.51 1092.23ZM1773.34 1070.39L1772.54 1069.79L1772.54 1069.79L1773.34 1070.39ZM1792.78 1056.01L1793.16 1056.94L1793.17 1056.93L1792.78 1056.01ZM1859.37 1061.07L1858.77 1061.87L1858.78 1061.88L1859.37 1061.07ZM1876.39 1087.69L1847.1 1090.88L1847.31 1092.87L1876.61 1089.67L1876.39 1087.69ZM1848.17 1091.61C1847.3 1088.51 1845.79 1085.61 1843.64 1082.91L1842.07 1084.15C1844.07 1086.66 1845.45 1089.33 1846.24 1092.15L1848.17 1091.61ZM1843.65 1082.92C1841.52 1080.17 1838.67 1077.98 1835.11 1076.32L1834.27 1078.13C1837.58 1079.68 1840.16 1081.68 1842.06 1084.14L1843.65 1082.92ZM1835.11 1076.32C1831.51 1074.65 1827.16 1073.83 1822.08 1073.83V1075.83C1826.95 1075.83 1831 1076.61 1834.27 1078.13L1835.11 1076.32ZM1822.08 1073.83C1815.25 1073.83 1809.43 1075.31 1804.68 1078.34L1805.75 1080.02C1810.11 1077.25 1815.54 1075.83 1822.08 1075.83V1073.83ZM1804.67 1078.34C1799.94 1081.39 1797.49 1085.45 1797.56 1090.47L1799.56 1090.44C1799.5 1086.23 1801.49 1082.77 1805.76 1080.02L1804.67 1078.34ZM1797.56 1090.44C1797.49 1094.7 1799.07 1098.21 1802.26 1100.9L1803.55 1099.37C1800.83 1097.08 1799.5 1094.14 1799.56 1090.47L1797.56 1090.44ZM1802.27 1100.9C1805.47 1103.54 1810.62 1105.62 1817.6 1107.23L1818.05 1105.28C1811.17 1103.7 1806.38 1101.7 1803.54 1099.36L1802.27 1100.9ZM1817.61 1107.24L1840.87 1112.21L1841.29 1110.25L1818.03 1105.28L1817.61 1107.24ZM1840.87 1112.21C1853.68 1114.97 1863.06 1119.32 1869.15 1125.18L1870.54 1123.74C1864.08 1117.52 1854.29 1113.05 1841.29 1110.25L1840.87 1112.21ZM1869.15 1125.18C1875.27 1131.01 1878.37 1138.64 1878.43 1148.17L1880.43 1148.16C1880.37 1138.15 1877.09 1129.98 1870.53 1123.73L1869.15 1125.18ZM1878.43 1148.16C1878.37 1156.53 1875.92 1163.9 1871.09 1170.29L1872.68 1171.49C1877.79 1164.74 1880.37 1156.96 1880.43 1148.17L1878.43 1148.16ZM1871.09 1170.29C1866.3 1176.63 1859.62 1181.62 1850.99 1185.24L1851.76 1187.08C1860.66 1183.35 1867.65 1178.16 1872.68 1171.49L1871.09 1170.29ZM1850.99 1185.24C1842.38 1188.85 1832.45 1190.66 1821.19 1190.66V1192.66C1832.66 1192.66 1842.86 1190.81 1851.76 1187.08L1850.99 1185.24ZM1821.19 1190.66C1804.64 1190.66 1791.42 1187.2 1781.45 1180.36L1780.32 1182.01C1790.72 1189.14 1804.37 1192.66 1821.19 1192.66V1190.66ZM1781.46 1180.37C1771.51 1173.48 1765.59 1163.93 1763.68 1151.65L1761.7 1151.96C1763.69 1164.77 1769.91 1174.81 1780.32 1182.01L1781.46 1180.37ZM1762.78 1152.8L1794.12 1149.78L1793.93 1147.79L1762.59 1150.81L1762.78 1152.8ZM1793.05 1149.01C1794.52 1155.37 1797.67 1160.25 1802.52 1163.55L1803.64 1161.89C1799.26 1158.92 1796.37 1154.5 1795 1148.56L1793.05 1149.01ZM1802.52 1163.55C1807.35 1166.83 1813.57 1168.43 1821.1 1168.43V1166.43C1813.84 1166.43 1808.05 1164.89 1803.64 1161.89L1802.52 1163.55ZM1821.1 1168.43C1828.87 1168.43 1835.21 1166.83 1840.04 1163.55L1838.92 1161.89C1834.52 1164.88 1828.61 1166.43 1821.1 1166.43V1168.43ZM1840.04 1163.55C1844.92 1160.28 1847.5 1156.12 1847.5 1151.09H1845.5C1845.5 1155.3 1843.39 1158.89 1838.92 1161.89L1840.04 1163.55ZM1847.5 1151.09C1847.5 1146.89 1845.85 1143.38 1842.61 1140.65L1841.32 1142.18C1844.12 1144.54 1845.5 1147.48 1845.5 1151.09H1847.5ZM1842.62 1140.66C1839.48 1137.95 1834.67 1135.95 1828.33 1134.58L1827.91 1136.53C1834.11 1137.88 1838.54 1139.79 1841.32 1142.17L1842.62 1140.66ZM1828.32 1134.58L1805.06 1129.69L1804.65 1131.65L1827.91 1136.53L1828.32 1134.58ZM1805.06 1129.69C1792.09 1126.99 1782.63 1122.47 1776.54 1116.21L1775.11 1117.61C1781.58 1124.26 1791.47 1128.91 1804.65 1131.65L1805.06 1129.69ZM1776.55 1116.22C1770.47 1109.92 1767.45 1101.95 1767.51 1092.24L1765.51 1092.23C1765.45 1102.4 1768.63 1110.89 1775.11 1117.61L1776.55 1116.22ZM1767.51 1092.22C1767.45 1084.02 1769.67 1076.96 1774.14 1070.99L1772.54 1069.79C1767.78 1076.14 1765.45 1083.64 1765.51 1092.24L1767.51 1092.22ZM1774.14 1070.99C1778.69 1064.94 1785.02 1060.25 1793.16 1056.94L1792.41 1055.08C1783.98 1058.52 1777.34 1063.41 1772.54 1069.79L1774.14 1070.99ZM1793.17 1056.93C1801.37 1053.56 1810.85 1051.86 1821.64 1051.86V1049.86C1810.64 1049.86 1800.89 1051.59 1792.4 1055.09L1793.17 1056.93ZM1821.64 1051.86C1837.49 1051.86 1849.83 1055.24 1858.77 1061.87L1859.96 1060.27C1850.56 1053.29 1837.75 1049.86 1821.64 1049.86V1051.86ZM1858.78 1061.88C1867.8 1068.53 1873.38 1077.51 1875.52 1088.87L1877.49 1088.49C1875.25 1076.65 1869.4 1067.23 1859.96 1060.27L1858.78 1061.88Z" fill="black" mask="url(#path-9-outside-1_43_46)"/>
</svg>
